STARTFONT 2.1
COMMENT
COMMENT Converted from OpenType font "Patriot-Medium.otf" by "otf2bdf 3.0".
COMMENT
FONT -FreeType-Patriot Medium-Medium-R-Normal--33-240-100-100-P-163-ISO10646-1
SIZE 24 100 100
FONTBOUNDINGBOX 56 44 -13 -9
STARTPROPERTIES 19
FOUNDRY "FreeType"
FAMILY_NAME "Patriot Medium"
WEIGHT_NAME "Medium"
SLANT "R"
SETWIDTH_NAME "Normal"
ADD_STYLE_NAME ""
PIXEL_SIZE 33
POINT_SIZE 240
RESOLUTION_X 100
RESOLUTION_Y 100
SPACING "P"
AVERAGE_WIDTH 163
CHARSET_REGISTRY "ISO10646"
CHARSET_ENCODING "1"
FONT_ASCENT 33
FONT_DESCENT 6
COPYRIGHT "Copyright © 2020 by Behalf Studio. All rights reserved."
_OTF_FONTFILE "Patriot-Medium.otf"
_OTF_PSNAME "Patriot-Medium"
ENDPROPERTIES
CHARS 426
STARTCHAR 0020
ENCODING 32
SWIDTH 360 0
DWIDTH 12 0
BBX 0 0 0 0
BITMAP
ENDCHAR
STARTCHAR 0021
ENCODING 33
SWIDTH 270 0
DWIDTH 9 0
BBX 5 23 2 0
BITMAP
70
70
70
70
70
70
70
70
70
70
70
70
70
70
70
00
00
00
70
F8
F8
F8
F8
ENDCHAR
STARTCHAR 0022
ENCODING 34
SWIDTH 330 0
DWIDTH 11 0
BBX 7 7 2 16
BITMAP
E6
E6
E6
E6
E6
E6
E6
ENDCHAR
STARTCHAR 0023
ENCODING 35
SWIDTH 630 0
DWIDTH 21 0
BBX 18 23 2 0
BITMAP
070F00
070F00
070F00
070E00
0F0E00
0F0E00
0E0E00
7FFFC0
7FFFC0
0E1C00
0E1C00
1E1C00
1E1C00
1C1C00
FFFF80
FFFF80
FFFF80
1C3800
3C3800
3C3800
383800
387800
387800
ENDCHAR
STARTCHAR 0024
ENCODING 36
SWIDTH 540 0
DWIDTH 18 0
BBX 15 30 2 -3
BITMAP
0380
0380
0380
07C0
1FF0
3FF8
7FF8
7C7C
783C
7838
7800
7C00
3F00
1F80
0FE0
07F0
01F8
00FC
007C
003E
301E
F03E
F83E
7EFC
7FFC
3FF8
1FF0
0380
0380
0380
ENDCHAR
STARTCHAR 0025
ENCODING 37
SWIDTH 900 0
DWIDTH 30 0
BBX 27 24 2 0
BITMAP
1F000000
3FC01E00
7FE01C00
F1E03800
E0F07000
E0F0F000
E0F0E000
F0F1C000
FBE3C000
7FC38000
3F870000
040F0000
000E0000
001C3E00
00387F80
0078FFC0
0071E3C0
00E1E1E0
01E1C0E0
01C1C1E0
0381E1E0
0780FFC0
0700FF80
0E003F00
ENDCHAR
STARTCHAR 0026
ENCODING 38
SWIDTH 660 0
DWIDTH 22 0
BBX 19 24 2 0
BITMAP
03C000
1FF000
3FFC00
3FFE00
7C3C00
781800
780000
780000
780000
7C0000
3FFFE0
3FFFE0
3FFFE0
7FFFE0
F80780
F00F80
F00F80
F00F00
F00F00
F81F00
7FFE00
7FFE00
3FFC00
0FF000
ENDCHAR
STARTCHAR 0027
ENCODING 39
SWIDTH 180 0
DWIDTH 6 0
BBX 3 7 2 16
BITMAP
E0
E0
E0
E0
E0
E0
E0
ENDCHAR
STARTCHAR 0028
ENCODING 40
SWIDTH 330 0
DWIDTH 11 0
BBX 7 32 2 -5
BITMAP
04
0E
0E
1E
1C
3C
38
78
70
70
F0
E0
E0
E0
E0
E0
E0
E0
E0
E0
E0
F0
70
70
78
38
3C
1C
1E
0E
0E
04
ENDCHAR
STARTCHAR 0029
ENCODING 41
SWIDTH 330 0
DWIDTH 11 0
BBX 8 30 2 -4
BITMAP
E0
F0
70
78
38
1C
1C
1E
0E
0E
0E
07
07
07
07
07
07
07
07
0E
0E
0E
1E
1C
1C
38
38
70
F0
60
ENDCHAR
STARTCHAR 002A
ENCODING 42
SWIDTH 450 0
DWIDTH 15 0
BBX 11 11 2 12
BITMAP
0600
0E00
0E00
4E60
F7E0
FFE0
7FC0
1F00
3B80
3BC0
31C0
ENDCHAR
STARTCHAR 002B
ENCODING 43
SWIDTH 570 0
DWIDTH 19 0
BBX 15 16 2 3
BITMAP
0380
0380
0380
0380
0380
0380
FFFE
FFFE
FFFE
FFFE
0380
0380
0380
0380
0380
0380
ENDCHAR
STARTCHAR 002C
ENCODING 44
SWIDTH 270 0
DWIDTH 9 0
BBX 5 7 2 -4
BITMAP
38
38
70
70
60
E0
C0
ENDCHAR
STARTCHAR 002D
ENCODING 45
SWIDTH 420 0
DWIDTH 14 0
BBX 11 3 2 6
BITMAP
FFE0
FFE0
FFE0
ENDCHAR
STARTCHAR 002E
ENCODING 46
SWIDTH 270 0
DWIDTH 9 0
BBX 5 5 2 0
BITMAP
70
F8
F8
F8
F8
ENDCHAR
STARTCHAR 002F
ENCODING 47
SWIDTH 420 0
DWIDTH 14 0
BBX 10 25 2 -1
BITMAP
01C0
03C0
0380
0380
0380
0780
0700
0700
0F00
0E00
0E00
0E00
1E00
1C00
1C00
3C00
3800
3800
3800
7800
7000
7000
F000
E000
E000
ENDCHAR
STARTCHAR 0030
ENCODING 48
SWIDTH 720 0
DWIDTH 24 0
BBX 22 25 1 -1
BITMAP
00FC00
03FF00
0FFFC0
1FFFE0
3F03F0
3E01F8
7C00F8
780078
78003C
F0003C
F0003C
F0003C
F0003C
F0003C
F0003C
F0003C
78007C
780078
7C00F8
3E01F0
1FCFF0
0FFFE0
07FF80
01FF00
001000
ENDCHAR
STARTCHAR 0031
ENCODING 49
SWIDTH 330 0
DWIDTH 11 0
BBX 8 23 1 0
BITMAP
0F
0F
FF
FF
FF
0F
0F
0F
0F
0F
0F
0F
0F
0F
0F
0F
0F
0F
0F
0F
0F
0F
0F
ENDCHAR
STARTCHAR 0032
ENCODING 50
SWIDTH 540 0
DWIDTH 18 0
BBX 16 24 1 0
BITMAP
03E0
0FF8
1FFC
3FFE
7C1F
781F
F80F
F80F
000F
000F
001E
001E
003C
007C
00F8
01F0
03E0
07C0
0F80
1F00
3FFF
7FFF
FFFF
FFFF
ENDCHAR
STARTCHAR 0033
ENCODING 51
SWIDTH 510 0
DWIDTH 17 0
BBX 16 24 1 -1
BITMAP
7FFE
7FFC
7FFC
00F0
01F0
03E0
07C0
0FE0
1FF0
3FFC
3FFC
183E
001E
000F
000F
000F
000F
001E
303E
FC7E
7FFC
3FF8
1FF0
0100
ENDCHAR
STARTCHAR 0034
ENCODING 52
SWIDTH 540 0
DWIDTH 18 0
BBX 18 23 0 0
BITMAP
007F00
03FF00
07FF00
0FFF00
1F8F00
1F0F00
3E0F00
3C0F00
780F00
780F00
780F00
780F00
780F00
7FFFC0
FFFFC0
FFFFC0
FFFFC0
000F00
000F00
000F00
000F00
000F00
000F00
ENDCHAR
STARTCHAR 0035
ENCODING 53
SWIDTH 540 0
DWIDTH 18 0
BBX 15 24 2 -1
BITMAP
7FFC
7FFC
7FFC
7000
F000
F000
F000
F7E0
FFF0
FFF8
FFFC
F03E
201E
001E
001E
001E
001E
001E
703E
F8FC
FFF8
7FF0
1FE0
0200
ENDCHAR
STARTCHAR 0036
ENCODING 54
SWIDTH 600 0
DWIDTH 20 0
BBX 19 24 1 -1
BITMAP
00F800
00F000
01F000
03E000
03C000
07C000
0FF800
1FFE00
1FFF00
3FFF80
3E07C0
7C03C0
7803C0
7801E0
F801E0
7803E0
7803C0
7803C0
7C07C0
3F1F80
1FFF00
0FFE00
07FC00
004000
ENDCHAR
STARTCHAR 0037
ENCODING 55
SWIDTH 480 0
DWIDTH 16 0
BBX 15 23 1 0
BITMAP
FFFE
FFFE
FFFE
003C
003C
0078
0078
0078
00F0
7FFC
7FFC
7FFC
7FFC
03C0
03C0
0780
0780
0780
0F00
0F00
1E00
1E00
1E00
ENDCHAR
STARTCHAR 0038
ENCODING 56
SWIDTH 570 0
DWIDTH 19 0
BBX 17 25 1 -1
BITMAP
01C000
0FF800
1FFC00
1FFC00
3E3E00
3C1E00
3C1E00
3E3E00
1FFC00
1FFC00
1FFC00
3FFE00
7C1F00
780F00
F00780
F00780
F00780
F00780
F80F80
780F00
7E3F00
3FFE00
1FFC00
0FF800
008000
ENDCHAR
STARTCHAR 0039
ENCODING 57
SWIDTH 600 0
DWIDTH 20 0
BBX 18 24 1 0
BITMAP
01F000
0FFC00
1FFE00
3FFF00
7E0F80
7C07C0
7803C0
F003C0
F003C0
F003C0
F003C0
F803C0
7807C0
7E0F80
3FFF00
1FFF00
0FFE00
003C00
007C00
00F800
00F000
01F000
03E000
07C000
ENDCHAR
STARTCHAR 003A
ENCODING 58
SWIDTH 270 0
DWIDTH 9 0
BBX 5 17 2 0
BITMAP
20
F8
F8
F8
F8
70
00
00
00
00
00
00
70
F8
F8
F8
F8
ENDCHAR
STARTCHAR 003B
ENCODING 59
SWIDTH 270 0
DWIDTH 9 0
BBX 6 21 2 -4
BITMAP
10
7C
7C
7C
7C
38
00
00
00
00
00
00
00
00
38
38
70
70
60
E0
C0
ENDCHAR
STARTCHAR 003C
ENCODING 60
SWIDTH 570 0
DWIDTH 19 0
BBX 15 14 2 4
BITMAP
000E
007E
03FE
0FF0
7F80
FC00
E000
FC00
7F80
1FF0
03FE
007E
000E
0002
ENDCHAR
STARTCHAR 003D
ENCODING 61
SWIDTH 570 0
DWIDTH 19 0
BBX 15 10 2 6
BITMAP
FFFE
FFFE
FFFE
0000
0000
0000
0000
FFFE
FFFE
FFFE
ENDCHAR
STARTCHAR 003E
ENCODING 62
SWIDTH 570 0
DWIDTH 19 0
BBX 15 15 2 3
BITMAP
8000
E000
FC00
FF80
1FE0
03FC
007E
001E
007E
03FC
1FF0
FF80
FC00
F000
8000
ENDCHAR
STARTCHAR 003F
ENCODING 63
SWIDTH 420 0
DWIDTH 14 0
BBX 11 24 2 0
BITMAP
0E00
3F80
7FC0
FFE0
F1E0
21E0
01E0
01C0
03C0
0780
0F80
0F00
0E00
1E00
1E00
1E00
0000
0000
0000
0C00
1F00
3F00
1F00
1E00
ENDCHAR
STARTCHAR 0040
ENCODING 64
SWIDTH 810 0
DWIDTH 27 0
BBX 23 25 2 -1
BITMAP
007F00
03FFC0
07F3F0
0F0078
1C001C
38001C
70100E
707F8E
E0FF86
E1E786
E1C386
E3C386
E3C30E
E3C70E
E1EF9C
E1FFF8
60FDF8
706060
780000
380010
1E0038
0F80F8
07FFE0
01FF80
000800
ENDCHAR
STARTCHAR 0041
ENCODING 65
SWIDTH 540 0
DWIDTH 18 0
BBX 16 24 2 0
BITMAP
0780
1FE0
3FF0
7FF8
F87C
F03C
F03C
F03C
F03C
F03C
F03C
F03C
F03C
F03C
F03C
F03C
F03C
F03C
F03C
F03C
FFFF
FFFF
FFFF
FFFF
ENDCHAR
STARTCHAR 0042
ENCODING 66
SWIDTH 600 0
DWIDTH 20 0
BBX 19 23 1 0
BITMAP
3FFE00
3FFF00
3FFF80
3FFFC0
3C07C0
3C03C0
3C03C0
3C03C0
3C07C0
FFFF80
FFFF80
FFFF80
FFFFC0
3C07C0
3C03E0
3C01E0
3C01E0
3C03E0
3C07E0
3FFFC0
3FFFC0
3FFF00
3FFE00
ENDCHAR
STARTCHAR 0043
ENCODING 67
SWIDTH 660 0
DWIDTH 22 0
BBX 21 25 1 -1
BITMAP
003F00
01FFC0
07FFF0
0FFFF8
1FC1F8
3F0070
3E0020
7C0000
780000
F80000
F80000
F00000
F00000
F00000
F80000
780000
780000
7C0000
3E0020
3F00F0
1FF7F8
0FFFF8
03FFE0
00FFC0
000C00
ENDCHAR
STARTCHAR 0044
ENCODING 68
SWIDTH 660 0
DWIDTH 22 0
BBX 19 23 2 0
BITMAP
FFF000
FFFC00
FFFE00
FFFF80
F01F80
F007C0
F003C0
F003E0
F001E0
F001E0
F001E0
F001E0
F001E0
F001E0
F001E0
F003E0
F007C0
F00FC0
F03F80
FFFF00
FFFE00
FFFC00
FFE000
ENDCHAR
STARTCHAR 0045
ENCODING 69
SWIDTH 510 0
DWIDTH 17 0
BBX 16 23 1 0
BITMAP
3FF0
3FF0
3FF0
3FF0
3C00
3C00
3C00
3C00
3C00
FFF8
FFF8
FFF8
FFF8
3C00
3C00
3C00
3C00
3C00
3C00
3FFF
3FFF
3FFF
3FFF
ENDCHAR
STARTCHAR 0046
ENCODING 70
SWIDTH 450 0
DWIDTH 15 0
BBX 15 23 1 0
BITMAP
3FFE
3FFE
3FFE
3FFE
3E00
3E00
3E00
3E00
3E00
3E00
FFFC
FFFC
FFFC
FFFC
3E00
3E00
3E00
3E00
3E00
3E00
3E00
3E00
3E00
ENDCHAR
STARTCHAR 0047
ENCODING 71
SWIDTH 810 0
DWIDTH 27 0
BBX 26 25 1 -1
BITMAP
003F0000
01FFC000
07FFF000
0FFFF800
1FC1F800
3F007000
3E002000
7C000000
78000000
F8000000
F80FFFC0
F00FFFC0
F00FFFC0
F00FFFC0
F8000F00
78000F00
78001F00
7C001F00
3E003E00
3F007C00
1FF7FC00
0FFFF800
03FFE000
00FFC000
000C0000
ENDCHAR
STARTCHAR 0048
ENCODING 72
SWIDTH 570 0
DWIDTH 19 0
BBX 16 23 1 0
BITMAP
3C0F
3C0F
3C0F
3C0F
3C0F
3C0F
3C0F
3C0F
3C0F
3C0F
FFFF
FFFF
FFFF
FFFF
3C0F
3C0F
3C0F
3C0F
3C0F
3C0F
3C0F
3C0F
3C0F
ENDCHAR
STARTCHAR 0049
ENCODING 73
SWIDTH 210 0
DWIDTH 7 0
BBX 9 26 -1 1
BITMAP
0800
0C00
1C00
FF80
3E00
1E00
3E00
2200
0000
0000
0000
0000
1E00
1E00
1E00
1E00
1E00
1E00
1E00
1E00
1E00
1E00
1E00
1E00
1E00
1E00
ENDCHAR
STARTCHAR 004A
ENCODING 74
SWIDTH 480 0
DWIDTH 16 0
BBX 13 24 1 -1
BITMAP
01F8
01F8
01F8
01F8
0078
0078
0078
0078
0078
0078
0078
0078
0078
0078
0078
0078
0078
0078
70F8
FBF0
FFF0
7FE0
3FC0
0600
ENDCHAR
STARTCHAR 004B
ENCODING 75
SWIDTH 540 0
DWIDTH 18 0
BBX 16 23 1 0
BITMAP
3C1E
3C1E
3C1E
3C1E
3C1E
3C1E
3C1E
3C3E
3C7C
FFFC
FFF8
FFFC
FFFE
3C1F
3C0F
3C0F
3C0F
3C0F
3C0F
3C0F
3C0F
3C0F
3C0F
ENDCHAR
STARTCHAR 004C
ENCODING 76
SWIDTH 450 0
DWIDTH 15 0
BBX 12 23 2 0
BITMAP
F000
F000
F000
F000
F000
F000
F000
F000
F000
F000
F000
F000
F000
F000
F000
F000
F000
F000
F000
FFF0
FFF0
FFF0
FFF0
ENDCHAR
STARTCHAR 004D
ENCODING 77
SWIDTH 870 0
DWIDTH 29 0
BBX 27 24 1 0
BITMAP
20080000
700E03E0
F80F03E0
FE0F83E0
7F0FC3E0
3F8FF3E0
3FCFFBE0
3FFFFFE0
3DFF7FE0
3CFF1FE0
3C7F0FE0
3C3F07E0
3C0F03E0
3C0F03E0
3C0F03E0
3C0F03E0
3C0F03E0
3C0F03E0
3C0F03E0
3C0F03E0
3C0F03E0
3C0F03E0
3C0F03E0
3C0F03E0
ENDCHAR
STARTCHAR 004E
ENCODING 78
SWIDTH 540 0
DWIDTH 18 0
BBX 16 24 1 0
BITMAP
2000
700F
F80F
FE0F
7F0F
7F8F
7FCF
7FFF
7BFF
78FF
787F
783F
781F
780F
780F
780F
780F
780F
780F
780F
780F
780F
780F
780F
ENDCHAR
STARTCHAR 004F
ENCODING 79
SWIDTH 810 0
DWIDTH 27 0
BBX 25 25 1 -1
BITMAP
003F0000
01FFE000
07FFF000
0FFFF800
1FC1FC00
3F003E00
3E001F00
7C000F00
78000F80
F8000780
F8000780
F0000780
F0000780
F0000780
F8000780
78000F80
78000F80
7C001F00
3E003F00
3F007E00
1FF3FC00
0FFFF800
03FFF000
00FFC000
000C0000
ENDCHAR
STARTCHAR 0050
ENCODING 80
SWIDTH 570 0
DWIDTH 19 0
BBX 18 23 1 0
BITMAP
3FF800
3FFE00
3FFF00
3FFF80
3C0F80
3C0780
3C07C0
3C07C0
3C0780
3C0F80
3C7F80
FFFF00
FFFE00
FFF800
3C0000
3C0000
3C0000
3C0000
3C0000
3C0000
3C0000
3C0000
3C0000
ENDCHAR
STARTCHAR 0051
ENCODING 81
SWIDTH 810 0
DWIDTH 27 0
BBX 25 25 1 -1
BITMAP
003F0000
01FFE000
07FFF000
0FFFF800
1FC1FC00
3F003E00
3E001F00
7C000F00
78000F80
F8000780
F8000780
F0000780
F0000780
F0000780
F8000780
78000F80
78006F80
7C00FF00
3E01FF00
3F00FE00
1FF3FE00
0FFFFF00
03FFFF00
00FFCE00
000C0400
ENDCHAR
STARTCHAR 0052
ENCODING 82
SWIDTH 600 0
DWIDTH 20 0
BBX 18 23 1 0
BITMAP
3FFC00
3FFF00
3FFF80
3FFF80
3C07C0
3C03C0
3C03C0
3C03C0
3C03C0
3C07C0
FFFF80
FFFF00
FFFE00
FFFF00
3C1F00
3C0F80
3C0780
3C0780
3C0780
3C0780
3C0780
3C0780
3C0780
ENDCHAR
STARTCHAR 0053
ENCODING 83
SWIDTH 480 0
DWIDTH 16 0
BBX 15 25 1 -1
BITMAP
07C0
1FF0
3FF8
7FFC
7C7C
783C
7838
7800
7C00
3F00
1F80
0FE0
07F0
01F8
00FC
003E
003E
101E
F01E
F83E
7EFC
7FFC
3FF8
0FF0
0180
ENDCHAR
STARTCHAR 0054
ENCODING 84
SWIDTH 510 0
DWIDTH 17 0
BBX 15 23 1 0
BITMAP
FFFE
FFFE
FFFE
FFFE
03C0
03C0
03C0
03C0
03C0
03C0
03C0
03C0
03C0
03C0
03C0
03C0
03C0
03C0
03C0
03C0
03C0
03C0
03C0
ENDCHAR
STARTCHAR 0055
ENCODING 85
SWIDTH 510 0
DWIDTH 17 0
BBX 15 24 1 -1
BITMAP
F81E
F81E
F81E
F81E
F81E
F81E
F81E
F81E
F81E
F81E
F81E
F81E
F81E
F81E
F81E
F81E
781E
781E
7C3E
7EFC
3FFC
1FF8
0FF0
0180
ENDCHAR
STARTCHAR 0056
ENCODING 86
SWIDTH 480 0
DWIDTH 16 0
BBX 15 23 0 0
BITMAP
F83E
F83E
F83E
F83E
F83E
F83E
F83E
F83E
F83E
F83E
F83E
F83C
783C
783C
783C
783C
7C7C
3C78
3C78
1EF0
1FF0
0FE0
07C0
ENDCHAR
STARTCHAR 0057
ENCODING 87
SWIDTH 780 0
DWIDTH 26 0
BBX 25 23 0 0
BITMAP
F83E0F80
F83E0F80
F83E0F80
F83E0F80
F83E0F80
F83E0F80
F83E0F80
F83E0F80
F83E0F80
F83E0F80
F83E0F80
F83E0F80
783E0F00
783E0F00
783E0F00
783E0F00
7C7F1F00
3C7F1E00
3C7F1E00
1EF7BC00
1FF7FC00
0FE3F800
07C1F000
ENDCHAR
STARTCHAR 0058
ENCODING 88
SWIDTH 510 0
DWIDTH 17 0
BBX 14 23 2 0
BITMAP
F03C
F03C
F03C
F03C
F03C
F03C
F03C
F87C
7FF8
3FF0
7FF8
7FF8
F87C
F03C
F03C
F03C
F03C
F03C
F03C
F03C
F03C
F03C
F03C
ENDCHAR
STARTCHAR 0059
ENCODING 89
SWIDTH 510 0
DWIDTH 17 0
BBX 15 23 1 0
BITMAP
F81E
F81E
F81E
F81E
F81E
F81E
F81E
F81E
F81E
F81E
F81E
F81E
783E
7C7C
3FFC
3FF8
0FF0
03C0
03C0
03C0
03C0
03C0
03C0
ENDCHAR
STARTCHAR 005A
ENCODING 90
SWIDTH 510 0
DWIDTH 17 0
BBX 16 23 1 0
BITMAP
FFFF
FFFF
FFFE
FFFE
007C
0078
00F8
00F0
01F0
03E0
03C0
07C0
0780
0F80
1F00
1E00
3E00
3C00
7C00
7FFE
FFFE
FFFE
FFFE
ENDCHAR
STARTCHAR 005B
ENCODING 91
SWIDTH 240 0
DWIDTH 8 0
BBX 5 33 2 -5
BITMAP
F8
F8
F8
E0
E0
E0
E0
E0
E0
E0
E0
E0
E0
E0
E0
E0
E0
E0
E0
E0
E0
E0
E0
E0
E0
E0
E0
E0
E0
E0
F8
F8
F8
ENDCHAR
STARTCHAR 005C
ENCODING 92
SWIDTH 420 0
DWIDTH 14 0
BBX 10 25 2 -1
BITMAP
E000
F000
F000
7000
7000
7800
3800
3800
3C00
1C00
1C00
1C00
1E00
0E00
0E00
0F00
0700
0700
0700
0780
0380
0380
03C0
01C0
01C0
ENDCHAR
STARTCHAR 005D
ENCODING 93
SWIDTH 240 0
DWIDTH 8 0
BBX 5 33 2 -5
BITMAP
F8
F8
F8
38
38
38
38
38
38
38
38
38
38
38
38
38
38
38
38
38
38
38
38
38
38
38
38
38
38
38
F8
F8
F8
ENDCHAR
STARTCHAR 005E
ENCODING 94
SWIDTH 510 0
DWIDTH 17 0
BBX 13 9 2 11
BITMAP
0F80
0F80
1DC0
1DE0
38E0
38F0
7070
F038
E038
ENDCHAR
STARTCHAR 005F
ENCODING 95
SWIDTH 540 0
DWIDTH 18 0
BBX 14 3 2 -4
BITMAP
FFFC
FFFC
FFFC
ENDCHAR
STARTCHAR 0060
ENCODING 96
SWIDTH 150 0
DWIDTH 5 0
BBX 5 5 0 25
BITMAP
E0
70
30
38
18
ENDCHAR
STARTCHAR 0061
ENCODING 97
SWIDTH 540 0
DWIDTH 18 0
BBX 16 24 2 0
BITMAP
0780
1FE0
3FF0
7FF8
F87C
F03C
F03C
F03C
F03C
F03C
F03C
F03C
F03C
F03C
F03C
F03C
F03C
F03C
F03C
F03C
FFFF
FFFF
FFFF
FFFF
ENDCHAR
STARTCHAR 0062
ENCODING 98
SWIDTH 600 0
DWIDTH 20 0
BBX 19 23 1 0
BITMAP
3FFE00
3FFF00
3FFF80
3FFFC0
3C07C0
3C03C0
3C03C0
3C03C0
3C07C0
FFFF80
FFFF80
FFFF80
FFFFC0
3C07C0
3C03E0
3C01E0
3C01E0
3C03E0
3C07E0
3FFFC0
3FFFC0
3FFF00
3FFE00
ENDCHAR
STARTCHAR 0063
ENCODING 99
SWIDTH 660 0
DWIDTH 22 0
BBX 21 25 1 -1
BITMAP
003F00
01FFC0
07FFF0
0FFFF8
1FC1F8
3F0070
3E0020
7C0000
780000
F80000
F80000
F00000
F00000
F00000
F80000
780000
780000
7C0000
3E0020
3F00F0
1FF7F8
0FFFF8
03FFE0
00FFC0
000C00
ENDCHAR
STARTCHAR 0064
ENCODING 100
SWIDTH 660 0
DWIDTH 22 0
BBX 19 23 2 0
BITMAP
FFF000
FFFC00
FFFE00
FFFF80
F01F80
F007C0
F003C0
F003E0
F001E0
F001E0
F001E0
F001E0
F001E0
F001E0
F001E0
F003E0
F007C0
F00FC0
F03F80
FFFF00
FFFE00
FFFC00
FFE000
ENDCHAR
STARTCHAR 0065
ENCODING 101
SWIDTH 510 0
DWIDTH 17 0
BBX 16 23 1 0
BITMAP
3FF0
3FF0
3FF0
3FF0
3C00
3C00
3C00
3C00
3C00
FFF8
FFF8
FFF8
FFF8
3C00
3C00
3C00
3C00
3C00
3C00
3FFF
3FFF
3FFF
3FFF
ENDCHAR
STARTCHAR 0066
ENCODING 102
SWIDTH 450 0
DWIDTH 15 0
BBX 15 23 1 0
BITMAP
3FFE
3FFE
3FFE
3FFE
3E00
3E00
3E00
3E00
3E00
3E00
FFFC
FFFC
FFFC
FFFC
3E00
3E00
3E00
3E00
3E00
3E00
3E00
3E00
3E00
ENDCHAR
STARTCHAR 0067
ENCODING 103
SWIDTH 810 0
DWIDTH 27 0
BBX 26 25 1 -1
BITMAP
003F0000
01FFC000
07FFF000
0FFFF800
1FC1F800
3F007000
3E002000
7C000000
78000000
F8000000
F80FFFC0
F00FFFC0
F00FFFC0
F00FFFC0
F8000F00
78000F00
78001F00
7C001F00
3E003E00
3F007C00
1FF7FC00
0FFFF800
03FFE000
00FFC000
000C0000
ENDCHAR
STARTCHAR 0068
ENCODING 104
SWIDTH 570 0
DWIDTH 19 0
BBX 16 23 1 0
BITMAP
3C0F
3C0F
3C0F
3C0F
3C0F
3C0F
3C0F
3C0F
3C0F
3C0F
FFFF
FFFF
FFFF
FFFF
3C0F
3C0F
3C0F
3C0F
3C0F
3C0F
3C0F
3C0F
3C0F
ENDCHAR
STARTCHAR 0069
ENCODING 105
SWIDTH 210 0
DWIDTH 7 0
BBX 9 26 -1 1
BITMAP
0800
0C00
1C00
FF80
3E00
1E00
3E00
2200
0000
0000
0000
0000
1E00
1E00
1E00
1E00
1E00
1E00
1E00
1E00
1E00
1E00
1E00
1E00
1E00
1E00
ENDCHAR
STARTCHAR 006A
ENCODING 106
SWIDTH 480 0
DWIDTH 16 0
BBX 13 24 1 -1
BITMAP
01F8
01F8
01F8
01F8
0078
0078
0078
0078
0078
0078
0078
0078
0078
0078
0078
0078
0078
0078
70F8
FBF0
FFF0
7FE0
3FC0
0600
ENDCHAR
STARTCHAR 006B
ENCODING 107
SWIDTH 540 0
DWIDTH 18 0
BBX 16 23 1 0
BITMAP
3C1E
3C1E
3C1E
3C1E
3C1E
3C1E
3C1E
3C3E
3C7C
FFFC
FFF8
FFFC
FFFE
3C1F
3C0F
3C0F
3C0F
3C0F
3C0F
3C0F
3C0F
3C0F
3C0F
ENDCHAR
STARTCHAR 006C
ENCODING 108
SWIDTH 450 0
DWIDTH 15 0
BBX 12 23 2 0
BITMAP
F000
F000
F000
F000
F000
F000
F000
F000
F000
F000
F000
F000
F000
F000
F000
F000
F000
F000
F000
FFF0
FFF0
FFF0
FFF0
ENDCHAR
STARTCHAR 006D
ENCODING 109
SWIDTH 870 0
DWIDTH 29 0
BBX 27 24 1 0
BITMAP
20080000
700E03E0
F80F03E0
FE0F83E0
7F0FC3E0
3F8FF3E0
3FCFFBE0
3FFFFFE0
3DFF7FE0
3CFF1FE0
3C7F0FE0
3C3F07E0
3C0F03E0
3C0F03E0
3C0F03E0
3C0F03E0
3C0F03E0
3C0F03E0
3C0F03E0
3C0F03E0
3C0F03E0
3C0F03E0
3C0F03E0
3C0F03E0
ENDCHAR
STARTCHAR 006E
ENCODING 110
SWIDTH 540 0
DWIDTH 18 0
BBX 16 24 1 0
BITMAP
2000
700F
F80F
FE0F
7F0F
7F8F
7FCF
7FFF
7BFF
78FF
787F
783F
781F
780F
780F
780F
780F
780F
780F
780F
780F
780F
780F
780F
ENDCHAR
STARTCHAR 006F
ENCODING 111
SWIDTH 810 0
DWIDTH 27 0
BBX 25 25 1 -1
BITMAP
003F0000
01FFE000
07FFF000
0FFFF800
1FC1FC00
3F003E00
3E001F00
7C000F00
78000F80
F8000780
F8000780
F0000780
F0000780
F0000780
F8000780
78000F80
78000F80
7C001F00
3E003F00
3F007E00
1FF3FC00
0FFFF800
03FFF000
00FFC000
000C0000
ENDCHAR
STARTCHAR 0070
ENCODING 112
SWIDTH 570 0
DWIDTH 19 0
BBX 18 23 1 0
BITMAP
3FF800
3FFE00
3FFF00
3FFF80
3C0F80
3C0780
3C07C0
3C07C0
3C0780
3C0F80
3C7F80
FFFF00
FFFE00
FFF800
3C0000
3C0000
3C0000
3C0000
3C0000
3C0000
3C0000
3C0000
3C0000
ENDCHAR
STARTCHAR 0071
ENCODING 113
SWIDTH 810 0
DWIDTH 27 0
BBX 25 25 1 -1
BITMAP
003F0000
01FFE000
07FFF000
0FFFF800
1FC1FC00
3F003E00
3E001F00
7C000F00
78000F80
F8000780
F8000780
F0000780
F0000780
F0000780
F8000780
78000F80
78006F80
7C00FF00
3E01FF00
3F00FE00
1FF3FE00
0FFFFF00
03FFFF00
00FFCE00
000C0400
ENDCHAR
STARTCHAR 0072
ENCODING 114
SWIDTH 600 0
DWIDTH 20 0
BBX 18 23 1 0
BITMAP
3FFC00
3FFF00
3FFF80
3FFF80
3C07C0
3C03C0
3C03C0
3C03C0
3C03C0
3C07C0
FFFF80
FFFF00
FFFE00
FFFF00
3C1F00
3C0F80
3C0780
3C0780
3C0780
3C0780
3C0780
3C0780
3C0780
ENDCHAR
STARTCHAR 0073
ENCODING 115
SWIDTH 480 0
DWIDTH 16 0
BBX 15 25 1 -1
BITMAP
07C0
1FF0
3FF8
7FFC
7C7C
783C
7838
7800
7C00
3F00
1F80
0FE0
07F0
01F8
00FC
003E
003E
101E
F01E
F83E
7EFC
7FFC
3FF8
0FF0
0180
ENDCHAR
STARTCHAR 0074
ENCODING 116
SWIDTH 510 0
DWIDTH 17 0
BBX 15 23 1 0
BITMAP
FFFE
FFFE
FFFE
FFFE
03C0
03C0
03C0
03C0
03C0
03C0
03C0
03C0
03C0
03C0
03C0
03C0
03C0
03C0
03C0
03C0
03C0
03C0
03C0
ENDCHAR
STARTCHAR 0075
ENCODING 117
SWIDTH 510 0
DWIDTH 17 0
BBX 15 24 1 -1
BITMAP
F81E
F81E
F81E
F81E
F81E
F81E
F81E
F81E
F81E
F81E
F81E
F81E
F81E
F81E
F81E
F81E
781E
781E
7C3E
7EFC
3FFC
1FF8
0FF0
0180
ENDCHAR
STARTCHAR 0076
ENCODING 118
SWIDTH 480 0
DWIDTH 16 0
BBX 15 23 0 0
BITMAP
F83E
F83E
F83E
F83E
F83E
F83E
F83E
F83E
F83E
F83E
F83E
F83C
783C
783C
783C
783C
7C7C
3C78
3C78
1EF0
1FF0
0FE0
07C0
ENDCHAR
STARTCHAR 0077
ENCODING 119
SWIDTH 780 0
DWIDTH 26 0
BBX 25 23 0 0
BITMAP
F83E0F80
F83E0F80
F83E0F80
F83E0F80
F83E0F80
F83E0F80
F83E0F80
F83E0F80
F83E0F80
F83E0F80
F83E0F80
F83E0F80
783E0F00
783E0F00
783E0F00
783E0F00
7C7F1F00
3C7F1E00
3C7F1E00
1EF7BC00
1FF7FC00
0FE3F800
07C1F000
ENDCHAR
STARTCHAR 0078
ENCODING 120
SWIDTH 510 0
DWIDTH 17 0
BBX 14 23 2 0
BITMAP
F03C
F03C
F03C
F03C
F03C
F03C
F03C
F87C
7FF8
3FF0
7FF8
7FF8
F87C
F03C
F03C
F03C
F03C
F03C
F03C
F03C
F03C
F03C
F03C
ENDCHAR
STARTCHAR 0079
ENCODING 121
SWIDTH 510 0
DWIDTH 17 0
BBX 15 23 1 0
BITMAP
F81E
F81E
F81E
F81E
F81E
F81E
F81E
F81E
F81E
F81E
F81E
F81E
783E
7C7C
3FFC
3FF8
0FF0
03C0
03C0
03C0
03C0
03C0
03C0
ENDCHAR
STARTCHAR 007A
ENCODING 122
SWIDTH 510 0
DWIDTH 17 0
BBX 16 23 1 0
BITMAP
FFFF
FFFF
FFFE
FFFE
007C
0078
00F8
00F0
01F0
03E0
03C0
07C0
0780
0F80
1F00
1E00
3E00
3C00
7C00
7FFE
FFFE
FFFE
FFFE
ENDCHAR
STARTCHAR 007B
ENCODING 123
SWIDTH 330 0
DWIDTH 11 0
BBX 8 33 2 -5
BITMAP
03
1F
1F
3C
38
38
38
38
38
38
38
38
38
38
78
F0
E0
F0
78
38
38
38
38
38
38
38
38
38
38
38
3F
1F
0F
ENDCHAR
STARTCHAR 007C
ENCODING 124
SWIDTH 150 0
DWIDTH 5 0
BBX 2 28 2 -4
BITMAP
C0
C0
C0
C0
C0
C0
C0
C0
C0
C0
C0
C0
C0
C0
C0
C0
C0
C0
C0
C0
C0
C0
C0
C0
C0
C0
C0
C0
ENDCHAR
STARTCHAR 007D
ENCODING 125
SWIDTH 330 0
DWIDTH 11 0
BBX 8 33 2 -5
BITMAP
C0
F0
F8
38
38
38
38
38
38
38
38
38
38
1C
1C
1F
0F
0F
1E
1C
38
38
38
38
38
38
38
38
38
38
F8
F8
E0
ENDCHAR
STARTCHAR 007E
ENCODING 126
SWIDTH 540 0
DWIDTH 18 0
BBX 15 4 2 9
BITMAP
FC00
FFFE
FFFE
83FE
ENDCHAR
STARTCHAR 00A1
ENCODING 161
SWIDTH 270 0
DWIDTH 9 0
BBX 5 24 2 -4
BITMAP
70
F8
F8
F8
70
00
00
00
70
70
70
70
70
70
70
70
70
70
70
70
70
70
70
70
ENDCHAR
STARTCHAR 00A2
ENCODING 162
SWIDTH 510 0
DWIDTH 17 0
BBX 13 21 2 1
BITMAP
0380
0380
03C0
0FF0
3FF8
7FF8
7810
F000
E000
E000
E000
E000
F000
F000
7830
3FF8
1FF8
0FE0
0380
0380
0380
ENDCHAR
STARTCHAR 00A3
ENCODING 163
SWIDTH 540 0
DWIDTH 18 0
BBX 15 24 2 0
BITMAP
00F8
07FE
0FFE
1FFE
3F86
3E00
3C00
3C00
3C00
3C00
3E00
FFF8
FFF8
FFF8
0F00
0F00
0F00
0F00
0F00
3F00
FE00
FFFE
FFFE
FFFE
ENDCHAR
STARTCHAR 00A4
ENCODING 164
SWIDTH 600 0
DWIDTH 20 0
BBX 16 16 2 2
BITMAP
0002
6187
FFFF
7FFE
3C3C
381C
700E
700E
700E
700E
700E
381C
3E7C
7FFE
F7EF
6006
ENDCHAR
STARTCHAR 00A5
ENCODING 165
SWIDTH 660 0
DWIDTH 22 0
BBX 18 23 2 0
BITMAP
F807C0
780780
7C0F80
3C0F00
3E1F00
1E1E00
1F3E00
0F3C00
0FBC00
07F800
07F800
3FFF00
3FFF00
3FFF00
01E000
01E000
3FFF00
3FFF00
3FFF00
01E000
01E000
01E000
01E000
ENDCHAR
STARTCHAR 00A6
ENCODING 166
SWIDTH 150 0
DWIDTH 5 0
BBX 2 28 2 -4
BITMAP
C0
C0
C0
C0
C0
C0
C0
C0
C0
C0
C0
00
00
00
00
00
00
C0
C0
C0
C0
C0
C0
C0
C0
C0
C0
C0
ENDCHAR
STARTCHAR 00A7
ENCODING 167
SWIDTH 480 0
DWIDTH 16 0
BBX 12 28 2 -4
BITMAP
0F00
3FC0
7FE0
7FF0
78F0
7870
7800
7C00
3F00
1F80
3FE0
7FF0
F0F0
F070
F070
F0F0
7FF0
3FE0
1F80
07C0
03E0
01F0
70F0
F0F0
7FF0
7FE0
3FC0
0F80
ENDCHAR
STARTCHAR 00A8
ENCODING 168
SWIDTH 390 0
DWIDTH 13 0
BBX 13 5 0 25
BITMAP
7878
F8F8
FCF8
F8F8
7870
ENDCHAR
STARTCHAR 00A9
ENCODING 169
SWIDTH 840 0
DWIDTH 28 0
BBX 25 25 2 -1
BITMAP
007E0000
03FFC000
0781F000
0E003800
18001C00
30000E00
707E0600
60FF8700
E1FF0300
C3C00300
C3800300
C3800380
C3800380
C3800380
C3800300
C1C30300
61FF8300
60FF0700
703C0E00
38000C00
1C003C00
0F007800
07F7E000
01FFC000
00080000
ENDCHAR
STARTCHAR 00AB
ENCODING 171
SWIDTH 600 0
DWIDTH 20 0
BBX 16 15 2 3
BITMAP
078F
078F
0F1E
1E3C
3C78
3870
78F0
F1E0
F1E0
78F0
3C78
1E3C
1E3C
0F1E
078F
ENDCHAR
STARTCHAR 00AC
ENCODING 172
SWIDTH 570 0
DWIDTH 19 0
BBX 15 10 2 3
BITMAP
FFFE
FFFE
FFFE
FFFE
000E
000E
000E
000E
000E
000E
ENDCHAR
STARTCHAR 00AE
ENCODING 174
SWIDTH 510 0
DWIDTH 17 0
BBX 13 13 2 11
BITMAP
0F80
38E0
6030
4F98
CD98
8C88
8F88
8D88
CC98
4C98
6030
38E0
0F80
ENDCHAR
STARTCHAR 00AF
ENCODING 175
SWIDTH 270 0
DWIDTH 9 0
BBX 9 3 0 26
BITMAP
FF80
FF80
FF80
ENDCHAR
STARTCHAR 00B0
ENCODING 176
SWIDTH 330 0
DWIDTH 11 0
BBX 8 8 2 16
BITMAP
38
7E
C6
C3
C3
C3
7E
3C
ENDCHAR
STARTCHAR 00B1
ENCODING 177
SWIDTH 570 0
DWIDTH 19 0
BBX 15 15 2 3
BITMAP
0380
0380
0380
0380
FFFE
FFFE
FFFE
0380
0380
0380
0000
0000
FFFE
FFFE
FFFE
ENDCHAR
STARTCHAR 00B4
ENCODING 180
SWIDTH 150 0
DWIDTH 5 0
BBX 5 5 0 25
BITMAP
38
38
70
60
C0
ENDCHAR
STARTCHAR 00B6
ENCODING 182
SWIDTH 510 0
DWIDTH 17 0
BBX 13 28 2 -4
BITMAP
0398
1F98
3F98
7F98
FF98
FF98
FF98
FF98
FF98
FF98
7F98
7F98
1F98
0798
0398
0398
0398
0398
0398
0398
0398
0398
0398
0398
0398
0398
0398
0398
ENDCHAR
STARTCHAR 00B7
ENCODING 183
SWIDTH 270 0
DWIDTH 9 0
BBX 5 6 2 6
BITMAP
20
F8
F8
F8
F8
70
ENDCHAR
STARTCHAR 00B8
ENCODING 184
SWIDTH 210 0
DWIDTH 7 0
BBX 8 7 0 -7
BITMAP
0C
1C
0E
06
47
FE
7C
ENDCHAR
STARTCHAR 00BB
ENCODING 187
SWIDTH 600 0
DWIDTH 20 0
BBX 16 15 2 3
BITMAP
F1E0
78F0
78F0
3C78
1E3C
0F1E
0F1E
078F
078F
0F1E
1E3C
1C38
3C78
78F0
F1E0
ENDCHAR
STARTCHAR 00BF
ENCODING 191
SWIDTH 420 0
DWIDTH 14 0
BBX 11 24 2 -4
BITMAP
0F00
0F80
1F80
0F00
0700
0000
0000
0000
0F00
0F00
0F00
0E00
1E00
3C00
3C00
7800
F000
F000
F080
F1E0
FFE0
7FC0
7F80
0E00
ENDCHAR
STARTCHAR 00C0
ENCODING 192
SWIDTH 540 0
DWIDTH 18 0
BBX 16 30 2 0
BITMAP
1E00
0E00
0700
0700
0380
0000
0780
1FE0
3FF0
7FF8
F87C
F03C
F03C
F03C
F03C
F03C
F03C
F03C
F03C
F03C
F03C
F03C
F03C
F03C
F03C
F03C
FFFF
FFFF
FFFF
FFFF
ENDCHAR
STARTCHAR 00C1
ENCODING 193
SWIDTH 540 0
DWIDTH 18 0
BBX 16 30 2 0
BITMAP
00E0
01C0
0380
0380
0700
0000
0780
1FE0
3FF0
7FF8
F87C
F03C
F03C
F03C
F03C
F03C
F03C
F03C
F03C
F03C
F03C
F03C
F03C
F03C
F03C
F03C
FFFF
FFFF
FFFF
FFFF
ENDCHAR
STARTCHAR 00C2
ENCODING 194
SWIDTH 540 0
DWIDTH 18 0
BBX 16 30 2 0
BITMAP
0780
0FC0
1FE0
3CF0
3870
0000
0780
1FE0
3FF0
7FF8
F87C
F03C
F03C
F03C
F03C
F03C
F03C
F03C
F03C
F03C
F03C
F03C
F03C
F03C
F03C
F03C
FFFF
FFFF
FFFF
FFFF
ENDCHAR
STARTCHAR 00C3
ENCODING 195
SWIDTH 540 0
DWIDTH 18 0
BBX 16 30 2 0
BITMAP
1C00
1FE0
1FE0
00C0
0000
0000
0780
1FE0
3FF0
7FF8
F87C
F03C
F03C
F03C
F03C
F03C
F03C
F03C
F03C
F03C
F03C
F03C
F03C
F03C
F03C
F03C
FFFF
FFFF
FFFF
FFFF
ENDCHAR
STARTCHAR 00C4
ENCODING 196
SWIDTH 540 0
DWIDTH 18 0
BBX 16 30 2 0
BITMAP
7878
7C7C
7CFC
7C7C
3878
0000
0780
1FE0
3FF0
7FF8
F87C
F03C
F03C
F03C
F03C
F03C
F03C
F03C
F03C
F03C
F03C
F03C
F03C
F03C
F03C
F03C
FFFF
FFFF
FFFF
FFFF
ENDCHAR
STARTCHAR 00C5
ENCODING 197
SWIDTH 540 0
DWIDTH 18 0
BBX 16 32 2 0
BITMAP
0780
0FC0
0CC0
08C0
0CC0
0FC0
0300
0000
0780
1FE0
3FF0
7FF8
F87C
F03C
F03C
F03C
F03C
F03C
F03C
F03C
F03C
F03C
F03C
F03C
F03C
F03C
F03C
F03C
FFFF
FFFF
FFFF
FFFF
ENDCHAR
STARTCHAR 00C7
ENCODING 199
SWIDTH 660 0
DWIDTH 22 0
BBX 21 31 1 -7
BITMAP
003F00
01FFC0
07FFF0
0FFFF8
1FC1F8
3F0070
3E0020
7C0000
780000
F80000
F80000
F00000
F00000
F00000
F80000
780000
780000
7C0000
3E0020
3F00F0
1FF7F8
0FFFF8
03FFE0
00FF80
001800
003800
001C00
000600
008E00
01FC00
00FC00
ENDCHAR
STARTCHAR 00C8
ENCODING 200
SWIDTH 510 0
DWIDTH 17 0
BBX 16 30 1 0
BITMAP
1C00
0E00
0600
0700
0300
0000
0000
3FF0
3FF0
3FF0
3FF0
3C00
3C00
3C00
3C00
3C00
FFF8
FFF8
FFF8
FFF8
3C00
3C00
3C00
3C00
3C00
3C00
3FFF
3FFF
3FFF
3FFF
ENDCHAR
STARTCHAR 00C9
ENCODING 201
SWIDTH 510 0
DWIDTH 17 0
BBX 16 30 1 0
BITMAP
01E0
01C0
0380
0300
0700
0000
0000
3FF0
3FF0
3FF0
3FF0
3C00
3C00
3C00
3C00
3C00
FFF8
FFF8
FFF8
FFF8
3C00
3C00
3C00
3C00
3C00
3C00
3FFF
3FFF
3FFF
3FFF
ENDCHAR
STARTCHAR 00CA
ENCODING 202
SWIDTH 510 0
DWIDTH 17 0
BBX 16 30 1 0
BITMAP
0780
0FC0
1DE0
3CE0
3870
0000
0000
3FF0
3FF0
3FF0
3FF0
3C00
3C00
3C00
3C00
3C00
FFF8
FFF8
FFF8
FFF8
3C00
3C00
3C00
3C00
3C00
3C00
3FFF
3FFF
3FFF
3FFF
ENDCHAR
STARTCHAR 00CB
ENCODING 203
SWIDTH 510 0
DWIDTH 17 0
BBX 16 30 1 0
BITMAP
7878
7CFC
FCFC
7CF8
7878
0000
0000
3FF0
3FF0
3FF0
3FF0
3C00
3C00
3C00
3C00
3C00
FFF8
FFF8
FFF8
FFF8
3C00
3C00
3C00
3C00
3C00
3C00
3FFF
3FFF
3FFF
3FFF
ENDCHAR
STARTCHAR 00CC
ENCODING 204
SWIDTH 210 0
DWIDTH 7 0
BBX 6 21 0 0
BITMAP
E0
70
30
38
18
00
00
3C
3C
3C
3C
3C
3C
3C
3C
3C
3C
3C
3C
3C
3C
ENDCHAR
STARTCHAR 00CD
ENCODING 205
SWIDTH 210 0
DWIDTH 7 0
BBX 6 21 2 0
BITMAP
3C
38
70
60
E0
00
00
F0
F0
F0
F0
F0
F0
F0
F0
F0
F0
F0
F0
F0
F0
ENDCHAR
STARTCHAR 00CE
ENCODING 206
SWIDTH 210 0
DWIDTH 7 0
BBX 10 21 -1 0
BITMAP
1E00
3F00
7F80
F380
E1C0
0000
0000
1E00
1E00
1E00
1E00
1E00
1E00
1E00
1E00
1E00
1E00
1E00
1E00
1E00
1E00
ENDCHAR
STARTCHAR 00CF
ENCODING 207
SWIDTH 210 0
DWIDTH 7 0
BBX 14 21 -3 0
BITMAP
7878
7CFC
FCFC
7CF8
7878
0000
0000
0780
0780
0780
0780
0780
0780
0780
0780
0780
0780
0780
0780
0780
0780
ENDCHAR
STARTCHAR 00D1
ENCODING 209
SWIDTH 540 0
DWIDTH 18 0
BBX 16 30 1 0
BITMAP
0600
0FF0
0FF0
0060
0000
0000
2000
700F
F80F
FE0F
7F0F
7F8F
7FCF
7FFF
7BFF
78FF
787F
783F
781F
780F
780F
780F
780F
780F
780F
780F
780F
780F
780F
780F
ENDCHAR
STARTCHAR 00D2
ENCODING 210
SWIDTH 810 0
DWIDTH 27 0
BBX 25 31 1 -1
BITMAP
00700000
00380000
00180000
001C0000
000C0000
00000000
003F0000
01FFE000
07FFF000
0FFFF800
1FC1FC00
3F003E00
3E001F00
7C000F00
78000F80
F8000780
F8000780
F0000780
F0000780
F0000780
F8000780
78000F80
78000F80
7C001F00
3E003F00
3F007E00
1FF3FC00
0FFFF800
03FFF000
00FFC000
000C0000
ENDCHAR
STARTCHAR 00D3
ENCODING 211
SWIDTH 810 0
DWIDTH 27 0
BBX 25 31 1 -1
BITMAP
00070000
00070000
000E0000
000C0000
001C0000
00000000
003F0000
01FFE000
07FFF000
0FFFF800
1FC1FC00
3F003E00
3E001F00
7C000F00
78000F80
F8000780
F8000780
F0000780
F0000780
F0000780
F8000780
78000F80
78000F80
7C001F00
3E003F00
3F007E00
1FF3FC00
0FFFF800
03FFF000
00FFC000
000C0000
ENDCHAR
STARTCHAR 00D4
ENCODING 212
SWIDTH 810 0
DWIDTH 27 0
BBX 25 31 1 -1
BITMAP
003E0000
003F0000
00778000
00F38000
01E1C000
00000000
003F0000
01FFE000
07FFF000
0FFFF800
1FC1FC00
3F003E00
3E001F00
7C000F00
78000F80
F8000780
F8000780
F0000780
F0000780
F0000780
F8000780
78000F80
78000F80
7C001F00
3E003F00
3F007E00
1FF3FC00
0FFFF800
03FFF000
00FFC000
000C0000
ENDCHAR
STARTCHAR 00D5
ENCODING 213
SWIDTH 810 0
DWIDTH 27 0
BBX 25 31 1 -1
BITMAP
00600000
00FF0000
00FF0000
00060000
00000000
00000000
003F0000
01FFE000
07FFF000
0FFFF800
1FC1FC00
3F003E00
3E001F00
7C000F00
78000F80
F8000780
F8000780
F0000780
F0000780
F0000780
F8000780
78000F80
78000F80
7C001F00
3E003F00
3F007E00
1FF3FC00
0FFFF800
03FFF000
00FFC000
000C0000
ENDCHAR
STARTCHAR 00D6
ENCODING 214
SWIDTH 810 0
DWIDTH 27 0
BBX 25 31 1 -1
BITMAP
01E1E000
03F3E000
03F3F000
03E3E000
01E1E000
00000000
003F0000
01FFE000
07FFF000
0FFFF800
1FC1FC00
3F003E00
3E001F00
7C000F00
78000F80
F8000780
F8000780
F0000780
F0000780
F0000780
F8000780
78000F80
78000F80
7C001F00
3E003F00
3F007E00
1FF3FC00
0FFFF800
03FFF000
00FFC000
000C0000
ENDCHAR
STARTCHAR 00D7
ENCODING 215
SWIDTH 510 0
DWIDTH 17 0
BBX 14 14 2 4
BITMAP
6018
F03C
F87C
7CF8
3FF0
1FE0
0FC0
0FC0
1FE0
3FF0
7CF8
F87C
7038
2010
ENDCHAR
STARTCHAR 00D8
ENCODING 216
SWIDTH 780 0
DWIDTH 26 0
BBX 25 25 1 0
BITMAP
007E0600
03FFCF00
07FFFE00
0FFFFC00
1FC1FC00
3F00FE00
7C01FE00
7801DF00
F8038F00
F0078F80
F00F0780
F01E0780
F03C0780
F0780780
F0F00F80
F8E00F00
79E00F00
7FC01F00
7F803E00
3F007E00
1FE7FC00
3FFFF800
3FFFE000
71FF8000
30000000
ENDCHAR
STARTCHAR 00D9
ENCODING 217
SWIDTH 510 0
DWIDTH 17 0
BBX 15 31 1 -1
BITMAP
0E00
0700
0300
0380
0180
0000
0000
F81E
F81E
F81E
F81E
F81E
F81E
F81E
F81E
F81E
F81E
F81E
F81E
F81E
F81E
F81E
F81E
781E
781E
7C3E
7EFC
3FFC
1FF8
0FF0
0180
ENDCHAR
STARTCHAR 00DA
ENCODING 218
SWIDTH 510 0
DWIDTH 17 0
BBX 15 31 1 -1
BITMAP
00F0
00E0
01C0
0180
0380
0000
0000
F81E
F81E
F81E
F81E
F81E
F81E
F81E
F81E
F81E
F81E
F81E
F81E
F81E
F81E
F81E
F81E
781E
781E
7C3E
7EFC
3FFC
1FF8
0FF0
0180
ENDCHAR
STARTCHAR 00DB
ENCODING 219
SWIDTH 510 0
DWIDTH 17 0
BBX 15 31 1 -1
BITMAP
03C0
07E0
0EF0
1E70
1C38
0000
0000
F81E
F81E
F81E
F81E
F81E
F81E
F81E
F81E
F81E
F81E
F81E
F81E
F81E
F81E
F81E
F81E
781E
781E
7C3E
7EFC
3FFC
1FF8
0FF0
0180
ENDCHAR
STARTCHAR 00DC
ENCODING 220
SWIDTH 510 0
DWIDTH 17 0
BBX 15 31 1 -1
BITMAP
3C3C
3E7C
7E7E
3E7C
3C3C
0000
0000
F81E
F81E
F81E
F81E
F81E
F81E
F81E
F81E
F81E
F81E
F81E
F81E
F81E
F81E
F81E
F81E
781E
781E
7C3E
7EFC
3FFC
1FF8
0FF0
0180
ENDCHAR
STARTCHAR 00DD
ENCODING 221
SWIDTH 510 0
DWIDTH 17 0
BBX 15 30 1 0
BITMAP
00E0
00E0
01C0
0180
0300
0000
0000
F81E
F81E
F81E
F81E
F81E
F81E
F81E
F81E
F81E
F81E
F81E
F81E
783E
7C7C
3FFC
3FF8
0FF0
03C0
03C0
03C0
03C0
03C0
03C0
ENDCHAR
STARTCHAR 00E0
ENCODING 224
SWIDTH 540 0
DWIDTH 18 0
BBX 16 30 2 0
BITMAP
1E00
0E00
0700
0700
0380
0000
0780
1FE0
3FF0
7FF8
F87C
F03C
F03C
F03C
F03C
F03C
F03C
F03C
F03C
F03C
F03C
F03C
F03C
F03C
F03C
F03C
FFFF
FFFF
FFFF
FFFF
ENDCHAR
STARTCHAR 00E1
ENCODING 225
SWIDTH 540 0
DWIDTH 18 0
BBX 16 30 2 0
BITMAP
00E0
01C0
0380
0380
0700
0000
0780
1FE0
3FF0
7FF8
F87C
F03C
F03C
F03C
F03C
F03C
F03C
F03C
F03C
F03C
F03C
F03C
F03C
F03C
F03C
F03C
FFFF
FFFF
FFFF
FFFF
ENDCHAR
STARTCHAR 00E2
ENCODING 226
SWIDTH 540 0
DWIDTH 18 0
BBX 16 30 2 0
BITMAP
0780
0FC0
1FE0
3CF0
3870
0000
0780
1FE0
3FF0
7FF8
F87C
F03C
F03C
F03C
F03C
F03C
F03C
F03C
F03C
F03C
F03C
F03C
F03C
F03C
F03C
F03C
FFFF
FFFF
FFFF
FFFF
ENDCHAR
STARTCHAR 00E3
ENCODING 227
SWIDTH 540 0
DWIDTH 18 0
BBX 16 30 2 0
BITMAP
1C00
1FE0
1FE0
00C0
0000
0000
0780
1FE0
3FF0
7FF8
F87C
F03C
F03C
F03C
F03C
F03C
F03C
F03C
F03C
F03C
F03C
F03C
F03C
F03C
F03C
F03C
FFFF
FFFF
FFFF
FFFF
ENDCHAR
STARTCHAR 00E4
ENCODING 228
SWIDTH 540 0
DWIDTH 18 0
BBX 16 30 2 0
BITMAP
7878
7C7C
7CFC
7C7C
3878
0000
0780
1FE0
3FF0
7FF8
F87C
F03C
F03C
F03C
F03C
F03C
F03C
F03C
F03C
F03C
F03C
F03C
F03C
F03C
F03C
F03C
FFFF
FFFF
FFFF
FFFF
ENDCHAR
STARTCHAR 00E5
ENCODING 229
SWIDTH 540 0
DWIDTH 18 0
BBX 16 32 2 0
BITMAP
0780
0FC0
0CC0
08C0
0CC0
0FC0
0300
0000
0780
1FE0
3FF0
7FF8
F87C
F03C
F03C
F03C
F03C
F03C
F03C
F03C
F03C
F03C
F03C
F03C
F03C
F03C
F03C
F03C
FFFF
FFFF
FFFF
FFFF
ENDCHAR
STARTCHAR 00E7
ENCODING 231
SWIDTH 660 0
DWIDTH 22 0
BBX 21 31 1 -7
BITMAP
003F00
01FFC0
07FFF0
0FFFF8
1FC1F8
3F0070
3E0020
7C0000
780000
F80000
F80000
F00000
F00000
F00000
F80000
780000
780000
7C0000
3E0020
3F00F0
1FF7F8
0FFFF8
03FFE0
00FF80
001800
003800
001C00
000600
008E00
01FC00
00FC00
ENDCHAR
STARTCHAR 00E8
ENCODING 232
SWIDTH 510 0
DWIDTH 17 0
BBX 16 30 1 0
BITMAP
1C00
0E00
0600
0700
0300
0000
0000
3FF0
3FF0
3FF0
3FF0
3C00
3C00
3C00
3C00
3C00
FFF8
FFF8
FFF8
FFF8
3C00
3C00
3C00
3C00
3C00
3C00
3FFF
3FFF
3FFF
3FFF
ENDCHAR
STARTCHAR 00E9
ENCODING 233
SWIDTH 510 0
DWIDTH 17 0
BBX 16 30 1 0
BITMAP
01E0
01C0
0380
0300
0700
0000
0000
3FF0
3FF0
3FF0
3FF0
3C00
3C00
3C00
3C00
3C00
FFF8
FFF8
FFF8
FFF8
3C00
3C00
3C00
3C00
3C00
3C00
3FFF
3FFF
3FFF
3FFF
ENDCHAR
STARTCHAR 00EA
ENCODING 234
SWIDTH 510 0
DWIDTH 17 0
BBX 16 30 1 0
BITMAP
0780
0FC0
1DE0
3CE0
3870
0000
0000
3FF0
3FF0
3FF0
3FF0
3C00
3C00
3C00
3C00
3C00
FFF8
FFF8
FFF8
FFF8
3C00
3C00
3C00
3C00
3C00
3C00
3FFF
3FFF
3FFF
3FFF
ENDCHAR
STARTCHAR 00EB
ENCODING 235
SWIDTH 510 0
DWIDTH 17 0
BBX 16 30 1 0
BITMAP
7878
7CFC
FCFC
7CF8
7878
0000
0000
3FF0
3FF0
3FF0
3FF0
3C00
3C00
3C00
3C00
3C00
FFF8
FFF8
FFF8
FFF8
3C00
3C00
3C00
3C00
3C00
3C00
3FFF
3FFF
3FFF
3FFF
ENDCHAR
STARTCHAR 00EC
ENCODING 236
SWIDTH 210 0
DWIDTH 7 0
BBX 6 21 0 0
BITMAP
E0
70
30
38
18
00
00
3C
3C
3C
3C
3C
3C
3C
3C
3C
3C
3C
3C
3C
3C
ENDCHAR
STARTCHAR 00ED
ENCODING 237
SWIDTH 210 0
DWIDTH 7 0
BBX 6 21 2 0
BITMAP
3C
38
70
60
E0
00
00
F0
F0
F0
F0
F0
F0
F0
F0
F0
F0
F0
F0
F0
F0
ENDCHAR
STARTCHAR 00EE
ENCODING 238
SWIDTH 210 0
DWIDTH 7 0
BBX 10 21 -1 0
BITMAP
1E00
3F00
7F80
F380
E1C0
0000
0000
1E00
1E00
1E00
1E00
1E00
1E00
1E00
1E00
1E00
1E00
1E00
1E00
1E00
1E00
ENDCHAR
STARTCHAR 00EF
ENCODING 239
SWIDTH 210 0
DWIDTH 7 0
BBX 14 21 -3 0
BITMAP
7878
7CFC
FCFC
7CF8
7878
0000
0000
0780
0780
0780
0780
0780
0780
0780
0780
0780
0780
0780
0780
0780
0780
ENDCHAR
STARTCHAR 00F1
ENCODING 241
SWIDTH 540 0
DWIDTH 18 0
BBX 16 30 1 0
BITMAP
0600
0FF0
0FF0
0060
0000
0000
2000
700F
F80F
FE0F
7F0F
7F8F
7FCF
7FFF
7BFF
78FF
787F
783F
781F
780F
780F
780F
780F
780F
780F
780F
780F
780F
780F
780F
ENDCHAR
STARTCHAR 00F2
ENCODING 242
SWIDTH 810 0
DWIDTH 27 0
BBX 25 31 1 -1
BITMAP
00700000
00380000
00180000
001C0000
000C0000
00000000
003F0000
01FFE000
07FFF000
0FFFF800
1FC1FC00
3F003E00
3E001F00
7C000F00
78000F80
F8000780
F8000780
F0000780
F0000780
F0000780
F8000780
78000F80
78000F80
7C001F00
3E003F00
3F007E00
1FF3FC00
0FFFF800
03FFF000
00FFC000
000C0000
ENDCHAR
STARTCHAR 00F3
ENCODING 243
SWIDTH 810 0
DWIDTH 27 0
BBX 25 31 1 -1
BITMAP
00070000
00070000
000E0000
000C0000
001C0000
00000000
003F0000
01FFE000
07FFF000
0FFFF800
1FC1FC00
3F003E00
3E001F00
7C000F00
78000F80
F8000780
F8000780
F0000780
F0000780
F0000780
F8000780
78000F80
78000F80
7C001F00
3E003F00
3F007E00
1FF3FC00
0FFFF800
03FFF000
00FFC000
000C0000
ENDCHAR
STARTCHAR 00F4
ENCODING 244
SWIDTH 810 0
DWIDTH 27 0
BBX 25 31 1 -1
BITMAP
003E0000
003F0000
00778000
00F38000
01E1C000
00000000
003F0000
01FFE000
07FFF000
0FFFF800
1FC1FC00
3F003E00
3E001F00
7C000F00
78000F80
F8000780
F8000780
F0000780
F0000780
F0000780
F8000780
78000F80
78000F80
7C001F00
3E003F00
3F007E00
1FF3FC00
0FFFF800
03FFF000
00FFC000
000C0000
ENDCHAR
STARTCHAR 00F5
ENCODING 245
SWIDTH 810 0
DWIDTH 27 0
BBX 25 31 1 -1
BITMAP
00600000
00FF0000
00FF0000
00060000
00000000
00000000
003F0000
01FFE000
07FFF000
0FFFF800
1FC1FC00
3F003E00
3E001F00
7C000F00
78000F80
F8000780
F8000780
F0000780
F0000780
F0000780
F8000780
78000F80
78000F80
7C001F00
3E003F00
3F007E00
1FF3FC00
0FFFF800
03FFF000
00FFC000
000C0000
ENDCHAR
STARTCHAR 00F6
ENCODING 246
SWIDTH 810 0
DWIDTH 27 0
BBX 25 31 1 -1
BITMAP
01E1E000
03F3E000
03F3F000
03E3E000
01E1E000
00000000
003F0000
01FFE000
07FFF000
0FFFF800
1FC1FC00
3F003E00
3E001F00
7C000F00
78000F80
F8000780
F8000780
F0000780
F0000780
F0000780
F8000780
78000F80
78000F80
7C001F00
3E003F00
3F007E00
1FF3FC00
0FFFF800
03FFF000
00FFC000
000C0000
ENDCHAR
STARTCHAR 00F7
ENCODING 247
SWIDTH 570 0
DWIDTH 19 0
BBX 15 16 2 3
BITMAP
0100
03C0
07C0
07C0
0380
0000
0000
FFFE
FFFE
FFFE
0000
0000
0380
07C0
07C0
0380
ENDCHAR
STARTCHAR 00F8
ENCODING 248
SWIDTH 780 0
DWIDTH 26 0
BBX 25 25 1 0
BITMAP
007E0600
03FFCF00
07FFFE00
0FFFFC00
1FC1FC00
3F00FE00
7C01FE00
7801DF00
F8038F00
F0078F80
F00F0780
F01E0780
F03C0780
F0780780
F0F00F80
F8E00F00
79E00F00
7FC01F00
7F803E00
3F007E00
1FE7FC00
3FFFF800
3FFFE000
71FF8000
30000000
ENDCHAR
STARTCHAR 00F9
ENCODING 249
SWIDTH 510 0
DWIDTH 17 0
BBX 15 31 1 -1
BITMAP
0E00
0700
0300
0380
0180
0000
0000
F81E
F81E
F81E
F81E
F81E
F81E
F81E
F81E
F81E
F81E
F81E
F81E
F81E
F81E
F81E
F81E
781E
781E
7C3E
7EFC
3FFC
1FF8
0FF0
0180
ENDCHAR
STARTCHAR 00FA
ENCODING 250
SWIDTH 510 0
DWIDTH 17 0
BBX 15 31 1 -1
BITMAP
00F0
00E0
01C0
0180
0380
0000
0000
F81E
F81E
F81E
F81E
F81E
F81E
F81E
F81E
F81E
F81E
F81E
F81E
F81E
F81E
F81E
F81E
781E
781E
7C3E
7EFC
3FFC
1FF8
0FF0
0180
ENDCHAR
STARTCHAR 00FB
ENCODING 251
SWIDTH 510 0
DWIDTH 17 0
BBX 15 31 1 -1
BITMAP
03C0
07E0
0EF0
1E70
1C38
0000
0000
F81E
F81E
F81E
F81E
F81E
F81E
F81E
F81E
F81E
F81E
F81E
F81E
F81E
F81E
F81E
F81E
781E
781E
7C3E
7EFC
3FFC
1FF8
0FF0
0180
ENDCHAR
STARTCHAR 00FC
ENCODING 252
SWIDTH 510 0
DWIDTH 17 0
BBX 15 31 1 -1
BITMAP
3C3C
3E7C
7E7E
3E7C
3C3C
0000
0000
F81E
F81E
F81E
F81E
F81E
F81E
F81E
F81E
F81E
F81E
F81E
F81E
F81E
F81E
F81E
F81E
781E
781E
7C3E
7EFC
3FFC
1FF8
0FF0
0180
ENDCHAR
STARTCHAR 00FD
ENCODING 253
SWIDTH 510 0
DWIDTH 17 0
BBX 15 30 1 0
BITMAP
00E0
00E0
01C0
0180
0300
0000
0000
F81E
F81E
F81E
F81E
F81E
F81E
F81E
F81E
F81E
F81E
F81E
F81E
783E
7C7C
3FFC
3FF8
0FF0
03C0
03C0
03C0
03C0
03C0
03C0
ENDCHAR
STARTCHAR 00FF
ENCODING 255
SWIDTH 510 0
DWIDTH 17 0
BBX 15 30 1 0
BITMAP
3C3C
7C7C
7E7C
7C7C
3C3C
0000
0000
F81E
F81E
F81E
F81E
F81E
F81E
F81E
F81E
F81E
F81E
F81E
F81E
783E
7C7C
3FFC
3FF8
0FF0
03C0
03C0
03C0
03C0
03C0
03C0
ENDCHAR
STARTCHAR 0100
ENCODING 256
SWIDTH 540 0
DWIDTH 18 0
BBX 16 29 2 0
BITMAP
3FF0
3FF0
3FF0
0000
0000
0780
1FE0
3FF0
7FF8
F87C
F03C
F03C
F03C
F03C
F03C
F03C
F03C
F03C
F03C
F03C
F03C
F03C
F03C
F03C
F03C
FFFF
FFFF
FFFF
FFFF
ENDCHAR
STARTCHAR 0101
ENCODING 257
SWIDTH 540 0
DWIDTH 18 0
BBX 16 29 2 0
BITMAP
3FF0
3FF0
3FF0
0000
0000
0780
1FE0
3FF0
7FF8
F87C
F03C
F03C
F03C
F03C
F03C
F03C
F03C
F03C
F03C
F03C
F03C
F03C
F03C
F03C
F03C
FFFF
FFFF
FFFF
FFFF
ENDCHAR
STARTCHAR 0102
ENCODING 258
SWIDTH 540 0
DWIDTH 18 0
BBX 16 30 2 0
BITMAP
3870
3870
1FE0
0FC0
0780
0000
0780
1FE0
3FF0
7FF8
F87C
F03C
F03C
F03C
F03C
F03C
F03C
F03C
F03C
F03C
F03C
F03C
F03C
F03C
F03C
F03C
FFFF
FFFF
FFFF
FFFF
ENDCHAR
STARTCHAR 0103
ENCODING 259
SWIDTH 540 0
DWIDTH 18 0
BBX 16 30 2 0
BITMAP
3870
3870
1FE0
0FC0
0780
0000
0780
1FE0
3FF0
7FF8
F87C
F03C
F03C
F03C
F03C
F03C
F03C
F03C
F03C
F03C
F03C
F03C
F03C
F03C
F03C
F03C
FFFF
FFFF
FFFF
FFFF
ENDCHAR
STARTCHAR 0104
ENCODING 260
SWIDTH 540 0
DWIDTH 18 0
BBX 18 30 2 -7
BITMAP
078000
1FE000
3FF000
7FF800
F87C00
F03C00
F03C00
F03C00
F03C00
F03C00
F03C00
F03C00
F03C00
F03C00
F03C00
F03C00
F03C00
F03C00
F03C00
F03C00
FFFF00
FFFF00
FFFF00
FFFF00
000E00
001C00
001800
001880
001FC0
000F80
ENDCHAR
STARTCHAR 0105
ENCODING 261
SWIDTH 540 0
DWIDTH 18 0
BBX 18 30 2 -7
BITMAP
078000
1FE000
3FF000
7FF800
F87C00
F03C00
F03C00
F03C00
F03C00
F03C00
F03C00
F03C00
F03C00
F03C00
F03C00
F03C00
F03C00
F03C00
F03C00
F03C00
FFFF00
FFFF00
FFFF00
FFFF00
000E00
001C00
001800
001880
001FC0
000F80
ENDCHAR
STARTCHAR 0106
ENCODING 262
SWIDTH 660 0
DWIDTH 22 0
BBX 21 31 1 -1
BITMAP
000700
000E00
000E00
001C00
001800
000000
003F00
01FFC0
07FFF0
0FFFF8
1FC1F8
3F0070
3E0020
7C0000
780000
F80000
F80000
F00000
F00000
F00000
F80000
780000
780000
7C0000
3E0020
3F00F0
1FF7F8
0FFFF8
03FFE0
00FFC0
000C00
ENDCHAR
STARTCHAR 0107
ENCODING 263
SWIDTH 660 0
DWIDTH 22 0
BBX 21 31 1 -1
BITMAP
000700
000E00
000E00
001C00
001800
000000
003F00
01FFC0
07FFF0
0FFFF8
1FC1F8
3F0070
3E0020
7C0000
780000
F80000
F80000
F00000
F00000
F00000
F80000
780000
780000
7C0000
3E0020
3F00F0
1FF7F8
0FFFF8
03FFE0
00FFC0
000C00
ENDCHAR
STARTCHAR 010A
ENCODING 266
SWIDTH 660 0
DWIDTH 22 0
BBX 21 32 1 -1
BITMAP
001C00
003E00
003E00
003E00
001E00
000000
000000
003F00
01FFC0
07FFF0
0FFFF8
1FC1F8
3F0070
3E0020
7C0000
780000
F80000
F80000
F00000
F00000
F00000
F80000
780000
780000
7C0000
3E0020
3F00F0
1FF7F8
0FFFF8
03FFE0
00FFC0
000C00
ENDCHAR
STARTCHAR 010B
ENCODING 267
SWIDTH 660 0
DWIDTH 22 0
BBX 21 32 1 -1
BITMAP
001C00
003E00
003E00
003E00
001E00
000000
000000
003F00
01FFC0
07FFF0
0FFFF8
1FC1F8
3F0070
3E0020
7C0000
780000
F80000
F80000
F00000
F00000
F00000
F80000
780000
780000
7C0000
3E0020
3F00F0
1FF7F8
0FFFF8
03FFE0
00FFC0
000C00
ENDCHAR
STARTCHAR 010C
ENCODING 268
SWIDTH 660 0
DWIDTH 22 0
BBX 21 31 1 -1
BITMAP
00E380
00F780
007F00
003E00
000000
000000
003F00
01FFC0
07FFF0
0FFFF8
1FC1F8
3F0070
3E0020
7C0000
780000
F80000
F80000
F00000
F00000
F00000
F80000
780000
780000
7C0000
3E0020
3F00F0
1FF7F8
0FFFF8
03FFE0
00FFC0
000C00
ENDCHAR
STARTCHAR 010D
ENCODING 269
SWIDTH 660 0
DWIDTH 22 0
BBX 21 31 1 -1
BITMAP
00E380
00F780
007F00
003E00
000000
000000
003F00
01FFC0
07FFF0
0FFFF8
1FC1F8
3F0070
3E0020
7C0000
780000
F80000
F80000
F00000
F00000
F00000
F80000
780000
780000
7C0000
3E0020
3F00F0
1FF7F8
0FFFF8
03FFE0
00FFC0
000C00
ENDCHAR
STARTCHAR 010E
ENCODING 270
SWIDTH 660 0
DWIDTH 22 0
BBX 19 30 2 0
BITMAP
1C7000
1EF000
0FE000
07C000
000000
000000
000000
FFF000
FFFC00
FFFE00
FFFF80
F01F80
F007C0
F003C0
F003E0
F001E0
F001E0
F001E0
F001E0
F001E0
F001E0
F001E0
F003E0
F007C0
F00FC0
F03F80
FFFF00
FFFE00
FFFC00
FFE000
ENDCHAR
STARTCHAR 010F
ENCODING 271
SWIDTH 660 0
DWIDTH 22 0
BBX 19 30 2 0
BITMAP
1C7000
1EF000
0FE000
07C000
000000
000000
000000
FFF000
FFFC00
FFFE00
FFFF80
F01F80
F007C0
F003C0
F003E0
F001E0
F001E0
F001E0
F001E0
F001E0
F001E0
F001E0
F003E0
F007C0
F00FC0
F03F80
FFFF00
FFFE00
FFFC00
FFE000
ENDCHAR
STARTCHAR 0110
ENCODING 272
SWIDTH 690 0
DWIDTH 23 0
BBX 21 23 1 0
BITMAP
3FFC00
3FFF00
3FFF80
3FFFE0
3C07E0
3C01F0
3C00F0
3C00F8
3C0078
FFE078
FFE078
FFE078
FFE078
3C0078
3C0078
3C00F8
3C01F0
3C03F0
3C0FE0
3FFFC0
3FFF80
3FFF00
3FF800
ENDCHAR
STARTCHAR 0111
ENCODING 273
SWIDTH 690 0
DWIDTH 23 0
BBX 21 23 1 0
BITMAP
3FFC00
3FFF00
3FFF80
3FFFE0
3C07E0
3C01F0
3C00F0
3C00F8
3C0078
FFE078
FFE078
FFE078
FFE078
3C0078
3C0078
3C00F8
3C01F0
3C03F0
3C0FE0
3FFFC0
3FFF80
3FFF00
3FF800
ENDCHAR
STARTCHAR 0112
ENCODING 274
SWIDTH 510 0
DWIDTH 17 0
BBX 16 29 1 0
BITMAP
3FF0
3FF0
3FF0
0000
0000
0000
3FF0
3FF0
3FF0
3FF0
3C00
3C00
3C00
3C00
3C00
FFF8
FFF8
FFF8
FFF8
3C00
3C00
3C00
3C00
3C00
3C00
3FFF
3FFF
3FFF
3FFF
ENDCHAR
STARTCHAR 0113
ENCODING 275
SWIDTH 510 0
DWIDTH 17 0
BBX 16 29 1 0
BITMAP
3FF0
3FF0
3FF0
0000
0000
0000
3FF0
3FF0
3FF0
3FF0
3C00
3C00
3C00
3C00
3C00
FFF8
FFF8
FFF8
FFF8
3C00
3C00
3C00
3C00
3C00
3C00
3FFF
3FFF
3FFF
3FFF
ENDCHAR
STARTCHAR 0116
ENCODING 278
SWIDTH 510 0
DWIDTH 17 0
BBX 16 31 1 0
BITMAP
0300
0780
0FC0
0FC0
0780
0000
0000
0000
3FF0
3FF0
3FF0
3FF0
3C00
3C00
3C00
3C00
3C00
FFF8
FFF8
FFF8
FFF8
3C00
3C00
3C00
3C00
3C00
3C00
3FFF
3FFF
3FFF
3FFF
ENDCHAR
STARTCHAR 0117
ENCODING 279
SWIDTH 510 0
DWIDTH 17 0
BBX 16 31 1 0
BITMAP
0300
0780
0FC0
0FC0
0780
0000
0000
0000
3FF0
3FF0
3FF0
3FF0
3C00
3C00
3C00
3C00
3C00
FFF8
FFF8
FFF8
FFF8
3C00
3C00
3C00
3C00
3C00
3C00
3FFF
3FFF
3FFF
3FFF
ENDCHAR
STARTCHAR 0118
ENCODING 280
SWIDTH 510 0
DWIDTH 17 0
BBX 17 30 1 -7
BITMAP
3FF000
3FF000
3FF000
3FF000
3C0000
3C0000
3C0000
3C0000
3C0000
FFF800
FFF800
FFF800
FFF800
3C0000
3C0000
3C0000
3C0000
3C0000
3C0000
3FFF00
3FFF00
3FFF00
3FFF00
001C00
001800
003000
003000
003F80
001F80
000400
ENDCHAR
STARTCHAR 0119
ENCODING 281
SWIDTH 510 0
DWIDTH 17 0
BBX 17 30 1 -7
BITMAP
3FF000
3FF000
3FF000
3FF000
3C0000
3C0000
3C0000
3C0000
3C0000
FFF800
FFF800
FFF800
FFF800
3C0000
3C0000
3C0000
3C0000
3C0000
3C0000
3FFF00
3FFF00
3FFF00
3FFF00
001C00
001800
003000
003000
003F80
001F80
000400
ENDCHAR
STARTCHAR 011A
ENCODING 282
SWIDTH 510 0
DWIDTH 17 0
BBX 16 30 1 0
BITMAP
38F0
1CE0
1FC0
0FC0
0000
0000
0000
3FF0
3FF0
3FF0
3FF0
3C00
3C00
3C00
3C00
3C00
FFF8
FFF8
FFF8
FFF8
3C00
3C00
3C00
3C00
3C00
3C00
3FFF
3FFF
3FFF
3FFF
ENDCHAR
STARTCHAR 011B
ENCODING 283
SWIDTH 510 0
DWIDTH 17 0
BBX 16 30 1 0
BITMAP
38F0
1CE0
1FC0
0FC0
0000
0000
0000
3FF0
3FF0
3FF0
3FF0
3C00
3C00
3C00
3C00
3C00
FFF8
FFF8
FFF8
FFF8
3C00
3C00
3C00
3C00
3C00
3C00
3FFF
3FFF
3FFF
3FFF
ENDCHAR
STARTCHAR 011E
ENCODING 286
SWIDTH 810 0
DWIDTH 27 0
BBX 26 31 1 -1
BITMAP
00C18000
00E38000
00FF0000
007F0000
00180000
00000000
003F0000
01FFC000
07FFF000
0FFFF800
1FC1F800
3F007000
3E002000
7C000000
78000000
F8000000
F80FFFC0
F00FFFC0
F00FFFC0
F00FFFC0
F8000F00
78000F00
78001F00
7C001F00
3E003E00
3F007C00
1FF7FC00
0FFFF800
03FFE000
00FFC000
000C0000
ENDCHAR
STARTCHAR 011F
ENCODING 287
SWIDTH 810 0
DWIDTH 27 0
BBX 26 31 1 -1
BITMAP
00C18000
00E38000
00FF0000
007F0000
00180000
00000000
003F0000
01FFC000
07FFF000
0FFFF800
1FC1F800
3F007000
3E002000
7C000000
78000000
F8000000
F80FFFC0
F00FFFC0
F00FFFC0
F00FFFC0
F8000F00
78000F00
78001F00
7C001F00
3E003E00
3F007C00
1FF7FC00
0FFFF800
03FFE000
00FFC000
000C0000
ENDCHAR
STARTCHAR 0120
ENCODING 288
SWIDTH 810 0
DWIDTH 27 0
BBX 26 32 1 -1
BITMAP
001C0000
003E0000
003E0000
003E0000
001E0000
00000000
00000000
003F0000
01FFC000
07FFF000
0FFFF800
1FC1F800
3F007000
3E002000
7C000000
78000000
F8000000
F80FFFC0
F00FFFC0
F00FFFC0
F00FFFC0
F8000F00
78000F00
78001F00
7C001F00
3E003E00
3F007C00
1FF7FC00
0FFFF800
03FFE000
00FFC000
000C0000
ENDCHAR
STARTCHAR 0121
ENCODING 289
SWIDTH 810 0
DWIDTH 27 0
BBX 26 32 1 -1
BITMAP
001C0000
003E0000
003E0000
003E0000
001E0000
00000000
00000000
003F0000
01FFC000
07FFF000
0FFFF800
1FC1F800
3F007000
3E002000
7C000000
78000000
F8000000
F80FFFC0
F00FFFC0
F00FFFC0
F00FFFC0
F8000F00
78000F00
78001F00
7C001F00
3E003E00
3F007C00
1FF7FC00
0FFFF800
03FFE000
00FFC000
000C0000
ENDCHAR
STARTCHAR 0124
ENCODING 292
SWIDTH 570 0
DWIDTH 19 0
BBX 16 30 1 0
BITMAP
01F0
03F0
07B8
073C
0E1C
0000
0000
3C0F
3C0F
3C0F
3C0F
3C0F
3C0F
3C0F
3C0F
3C0F
3C0F
FFFF
FFFF
FFFF
FFFF
3C0F
3C0F
3C0F
3C0F
3C0F
3C0F
3C0F
3C0F
3C0F
ENDCHAR
STARTCHAR 0125
ENCODING 293
SWIDTH 570 0
DWIDTH 19 0
BBX 16 30 1 0
BITMAP
01F0
03F0
07B8
073C
0E1C
0000
0000
3C0F
3C0F
3C0F
3C0F
3C0F
3C0F
3C0F
3C0F
3C0F
3C0F
FFFF
FFFF
FFFF
FFFF
3C0F
3C0F
3C0F
3C0F
3C0F
3C0F
3C0F
3C0F
3C0F
ENDCHAR
STARTCHAR 0128
ENCODING 296
SWIDTH 210 0
DWIDTH 7 0
BBX 8 21 -1 0
BITMAP
70
FF
FF
02
00
00
00
1E
1E
1E
1E
1E
1E
1E
1E
1E
1E
1E
1E
1E
1E
ENDCHAR
STARTCHAR 0129
ENCODING 297
SWIDTH 210 0
DWIDTH 7 0
BBX 8 21 -1 0
BITMAP
70
FF
FF
02
00
00
00
1E
1E
1E
1E
1E
1E
1E
1E
1E
1E
1E
1E
1E
1E
ENDCHAR
STARTCHAR 012A
ENCODING 298
SWIDTH 210 0
DWIDTH 7 0
BBX 10 20 -1 0
BITMAP
FFC0
FFC0
FFC0
0000
0000
0000
1E00
1E00
1E00
1E00
1E00
1E00
1E00
1E00
1E00
1E00
1E00
1E00
1E00
1E00
ENDCHAR
STARTCHAR 012B
ENCODING 299
SWIDTH 210 0
DWIDTH 7 0
BBX 10 20 -1 0
BITMAP
FFC0
FFC0
FFC0
0000
0000
0000
1E00
1E00
1E00
1E00
1E00
1E00
1E00
1E00
1E00
1E00
1E00
1E00
1E00
1E00
ENDCHAR
STARTCHAR 012E
ENCODING 302
SWIDTH 210 0
DWIDTH 7 0
BBX 9 33 -1 -6
BITMAP
0800
0C00
1C00
FF80
3E00
1E00
3E00
2200
0000
0000
0000
0000
1E00
1E00
1E00
1E00
1E00
1E00
1E00
1E00
1E00
1E00
1E00
1E00
1E00
1E00
3800
3000
6000
6000
7F00
3F00
0800
ENDCHAR
STARTCHAR 012F
ENCODING 303
SWIDTH 210 0
DWIDTH 7 0
BBX 9 33 -1 -6
BITMAP
0800
0C00
1C00
FF80
3E00
1E00
3E00
2200
0000
0000
0000
0000
1E00
1E00
1E00
1E00
1E00
1E00
1E00
1E00
1E00
1E00
1E00
1E00
1E00
1E00
3800
3000
6000
6000
7F00
3F00
0800
ENDCHAR
STARTCHAR 0130
ENCODING 304
SWIDTH 210 0
DWIDTH 7 0
BBX 6 22 1 0
BITMAP
30
78
FC
FC
78
00
00
00
78
78
78
78
78
78
78
78
78
78
78
78
78
78
ENDCHAR
STARTCHAR 0139
ENCODING 313
SWIDTH 450 0
DWIDTH 15 0
BBX 12 30 2 0
BITMAP
3C00
3800
7000
6000
E000
0000
0000
F000
F000
F000
F000
F000
F000
F000
F000
F000
F000
F000
F000
F000
F000
F000
F000
F000
F000
F000
FFF0
FFF0
FFF0
FFF0
ENDCHAR
STARTCHAR 013A
ENCODING 314
SWIDTH 450 0
DWIDTH 15 0
BBX 12 30 2 0
BITMAP
3C00
3800
7000
6000
E000
0000
0000
F000
F000
F000
F000
F000
F000
F000
F000
F000
F000
F000
F000
F000
F000
F000
F000
F000
F000
F000
FFF0
FFF0
FFF0
FFF0
ENDCHAR
STARTCHAR 013D
ENCODING 317
SWIDTH 450 0
DWIDTH 15 0
BBX 15 30 -1 0
BITMAP
E3C0
7380
7F00
3F00
0000
0000
0000
1E00
1E00
1E00
1E00
1E00
1E00
1E00
1E00
1E00
1E00
1E00
1E00
1E00
1E00
1E00
1E00
1E00
1E00
1E00
1FFE
1FFE
1FFE
1FFE
ENDCHAR
STARTCHAR 013E
ENCODING 318
SWIDTH 450 0
DWIDTH 15 0
BBX 15 30 -1 0
BITMAP
E3C0
7380
7F00
3F00
0000
0000
0000
1E00
1E00
1E00
1E00
1E00
1E00
1E00
1E00
1E00
1E00
1E00
1E00
1E00
1E00
1E00
1E00
1E00
1E00
1E00
1FFE
1FFE
1FFE
1FFE
ENDCHAR
STARTCHAR 0141
ENCODING 321
SWIDTH 510 0
DWIDTH 17 0
BBX 15 23 1 0
BITMAP
1E00
1E00
1E00
1E00
1E00
1E00
1E00
1E60
1FE0
1FC0
1F80
3E00
FE00
FE00
9E00
1E00
1E00
1E00
1E00
1FFE
1FFE
1FFE
1FFE
ENDCHAR
STARTCHAR 0142
ENCODING 322
SWIDTH 510 0
DWIDTH 17 0
BBX 15 23 1 0
BITMAP
1E00
1E00
1E00
1E00
1E00
1E00
1E00
1E60
1FE0
1FC0
1F80
3E00
FE00
FE00
9E00
1E00
1E00
1E00
1E00
1FFE
1FFE
1FFE
1FFE
ENDCHAR
STARTCHAR 0143
ENCODING 323
SWIDTH 540 0
DWIDTH 18 0
BBX 16 30 1 0
BITMAP
0070
00E0
00E0
01C0
0180
0000
2000
700F
F80F
FE0F
7F0F
7F8F
7FCF
7FFF
7BFF
78FF
787F
783F
781F
780F
780F
780F
780F
780F
780F
780F
780F
780F
780F
780F
ENDCHAR
STARTCHAR 0144
ENCODING 324
SWIDTH 540 0
DWIDTH 18 0
BBX 16 30 1 0
BITMAP
0070
00E0
00E0
01C0
0180
0000
2000
700F
F80F
FE0F
7F0F
7F8F
7FCF
7FFF
7BFF
78FF
787F
783F
781F
780F
780F
780F
780F
780F
780F
780F
780F
780F
780F
780F
ENDCHAR
STARTCHAR 0147
ENCODING 327
SWIDTH 540 0
DWIDTH 18 0
BBX 16 30 1 0
BITMAP
1E38
0F78
07F0
03E0
0000
0000
2000
700F
F80F
FE0F
7F0F
7F8F
7FCF
7FFF
7BFF
78FF
787F
783F
781F
780F
780F
780F
780F
780F
780F
780F
780F
780F
780F
780F
ENDCHAR
STARTCHAR 0148
ENCODING 328
SWIDTH 540 0
DWIDTH 18 0
BBX 16 30 1 0
BITMAP
1E38
0F78
07F0
03E0
0000
0000
2000
700F
F80F
FE0F
7F0F
7F8F
7FCF
7FFF
7BFF
78FF
787F
783F
781F
780F
780F
780F
780F
780F
780F
780F
780F
780F
780F
780F
ENDCHAR
STARTCHAR 014C
ENCODING 332
SWIDTH 810 0
DWIDTH 27 0
BBX 25 30 1 -1
BITMAP
00FF8000
00FF8000
00FF8000
00000000
00000000
003F0000
01FFE000
07FFF000
0FFFF800
1FC1FC00
3F003E00
3E001F00
7C000F00
78000F80
F8000780
F8000780
F0000780
F0000780
F0000780
F8000780
78000F80
78000F80
7C001F00
3E003F00
3F007E00
1FF3FC00
0FFFF800
03FFF000
00FFC000
000C0000
ENDCHAR
STARTCHAR 014D
ENCODING 333
SWIDTH 810 0
DWIDTH 27 0
BBX 25 30 1 -1
BITMAP
00FF8000
00FF8000
00FF8000
00000000
00000000
003F0000
01FFE000
07FFF000
0FFFF800
1FC1FC00
3F003E00
3E001F00
7C000F00
78000F80
F8000780
F8000780
F0000780
F0000780
F0000780
F8000780
78000F80
78000F80
7C001F00
3E003F00
3F007E00
1FF3FC00
0FFFF800
03FFF000
00FFC000
000C0000
ENDCHAR
STARTCHAR 0150
ENCODING 336
SWIDTH 810 0
DWIDTH 27 0
BBX 25 31 1 -1
BITMAP
003CE000
0038E000
0071C000
00618000
00E30000
00000000
003F0000
01FFE000
07FFF000
0FFFF800
1FC1FC00
3F003E00
3E001F00
7C000F00
78000F80
F8000780
F8000780
F0000780
F0000780
F0000780
F8000780
78000F80
78000F80
7C001F00
3E003F00
3F007E00
1FF3FC00
0FFFF800
03FFF000
00FFC000
000C0000
ENDCHAR
STARTCHAR 0151
ENCODING 337
SWIDTH 810 0
DWIDTH 27 0
BBX 25 31 1 -1
BITMAP
003CE000
0038E000
0071C000
00618000
00E30000
00000000
003F0000
01FFE000
07FFF000
0FFFF800
1FC1FC00
3F003E00
3E001F00
7C000F00
78000F80
F8000780
F8000780
F0000780
F0000780
F0000780
F8000780
78000F80
78000F80
7C001F00
3E003F00
3F007E00
1FF3FC00
0FFFF800
03FFF000
00FFC000
000C0000
ENDCHAR
STARTCHAR 0154
ENCODING 340
SWIDTH 600 0
DWIDTH 20 0
BBX 18 30 1 0
BITMAP
003800
007000
006000
00E000
00C000
000000
000000
3FFC00
3FFF00
3FFF80
3FFF80
3C07C0
3C03C0
3C03C0
3C03C0
3C03C0
3C07C0
FFFF80
FFFF00
FFFE00
FFFF00
3C1F00
3C0F80
3C0780
3C0780
3C0780
3C0780
3C0780
3C0780
3C0780
ENDCHAR
STARTCHAR 0155
ENCODING 341
SWIDTH 600 0
DWIDTH 20 0
BBX 18 30 1 0
BITMAP
003800
007000
006000
00E000
00C000
000000
000000
3FFC00
3FFF00
3FFF80
3FFF80
3C07C0
3C03C0
3C03C0
3C03C0
3C03C0
3C07C0
FFFF80
FFFF00
FFFE00
FFFF00
3C1F00
3C0F80
3C0780
3C0780
3C0780
3C0780
3C0780
3C0780
3C0780
ENDCHAR
STARTCHAR 0158
ENCODING 344
SWIDTH 600 0
DWIDTH 20 0
BBX 18 30 1 0
BITMAP
0F1C00
073800
03F000
03F000
000000
000000
000000
3FFC00
3FFF00
3FFF80
3FFF80
3C07C0
3C03C0
3C03C0
3C03C0
3C03C0
3C07C0
FFFF80
FFFF00
FFFE00
FFFF00
3C1F00
3C0F80
3C0780
3C0780
3C0780
3C0780
3C0780
3C0780
3C0780
ENDCHAR
STARTCHAR 0159
ENCODING 345
SWIDTH 600 0
DWIDTH 20 0
BBX 18 30 1 0
BITMAP
0F1C00
073800
03F000
03F000
000000
000000
000000
3FFC00
3FFF00
3FFF80
3FFF80
3C07C0
3C03C0
3C03C0
3C03C0
3C03C0
3C07C0
FFFF80
FFFF00
FFFE00
FFFF00
3C1F00
3C0F80
3C0780
3C0780
3C0780
3C0780
3C0780
3C0780
3C0780
ENDCHAR
STARTCHAR 015A
ENCODING 346
SWIDTH 480 0
DWIDTH 16 0
BBX 15 31 1 -1
BITMAP
00E0
01C0
01C0
0380
0300
0000
07C0
1FF0
3FF8
7FFC
7C7C
783C
7838
7800
7C00
3F00
1F80
0FE0
07F0
01F8
00FC
003E
003E
101E
F01E
F83E
7EFC
7FFC
3FF8
0FF0
0180
ENDCHAR
STARTCHAR 015B
ENCODING 347
SWIDTH 480 0
DWIDTH 16 0
BBX 15 31 1 -1
BITMAP
00E0
01C0
01C0
0380
0300
0000
07C0
1FF0
3FF8
7FFC
7C7C
783C
7838
7800
7C00
3F00
1F80
0FE0
07F0
01F8
00FC
003E
003E
101E
F01E
F83E
7EFC
7FFC
3FF8
0FF0
0180
ENDCHAR
STARTCHAR 015E
ENCODING 350
SWIDTH 480 0
DWIDTH 16 0
BBX 15 31 1 -7
BITMAP
07C0
1FF0
3FF8
7FFC
7C7C
783C
7838
7800
7C00
3F00
1F80
0FE0
07F0
01F8
00FC
003E
003E
101E
F01E
F83E
7EFC
7FFC
3FF8
0FF0
0180
0380
01C0
00C0
08E0
1FC0
0F80
ENDCHAR
STARTCHAR 015F
ENCODING 351
SWIDTH 480 0
DWIDTH 16 0
BBX 15 31 1 -7
BITMAP
07C0
1FF0
3FF8
7FFC
7C7C
783C
7838
7800
7C00
3F00
1F80
0FE0
07F0
01F8
00FC
003E
003E
101E
F01E
F83E
7EFC
7FFC
3FF8
0FF0
0180
0380
01C0
00C0
08E0
1FC0
0F80
ENDCHAR
STARTCHAR 0160
ENCODING 352
SWIDTH 480 0
DWIDTH 16 0
BBX 15 31 1 -1
BITMAP
1C70
1EF0
0FE0
07C0
0000
0000
07C0
1FF0
3FF8
7FFC
7C7C
783C
7838
7800
7C00
3F00
1F80
0FE0
07F0
01F8
00FC
003E
003E
101E
F01E
F83E
7EFC
7FFC
3FF8
0FF0
0180
ENDCHAR
STARTCHAR 0161
ENCODING 353
SWIDTH 480 0
DWIDTH 16 0
BBX 15 31 1 -1
BITMAP
1C70
1EF0
0FE0
07C0
0000
0000
07C0
1FF0
3FF8
7FFC
7C7C
783C
7838
7800
7C00
3F00
1F80
0FE0
07F0
01F8
00FC
003E
003E
101E
F01E
F83E
7EFC
7FFC
3FF8
0FF0
0180
ENDCHAR
STARTCHAR 0162
ENCODING 354
SWIDTH 510 0
DWIDTH 17 0
BBX 15 30 1 -7
BITMAP
FFFE
FFFE
FFFE
FFFE
03C0
03C0
03C0
03C0
03C0
03C0
03C0
03C0
03C0
03C0
03C0
03C0
03C0
03C0
03C0
03C0
03C0
03C0
03C0
0380
0380
01C0
00C0
08C0
1FC0
0F80
ENDCHAR
STARTCHAR 0163
ENCODING 355
SWIDTH 510 0
DWIDTH 17 0
BBX 15 30 1 -7
BITMAP
FFFE
FFFE
FFFE
FFFE
03C0
03C0
03C0
03C0
03C0
03C0
03C0
03C0
03C0
03C0
03C0
03C0
03C0
03C0
03C0
03C0
03C0
03C0
03C0
0380
0380
01C0
00C0
08C0
1FC0
0F80
ENDCHAR
STARTCHAR 0164
ENCODING 356
SWIDTH 510 0
DWIDTH 17 0
BBX 15 30 1 0
BITMAP
1C78
1EF0
0FE0
07C0
0000
0000
0000
FFFE
FFFE
FFFE
FFFE
03C0
03C0
03C0
03C0
03C0
03C0
03C0
03C0
03C0
03C0
03C0
03C0
03C0
03C0
03C0
03C0
03C0
03C0
03C0
ENDCHAR
STARTCHAR 0165
ENCODING 357
SWIDTH 510 0
DWIDTH 17 0
BBX 15 30 1 0
BITMAP
1C78
1EF0
0FE0
07C0
0000
0000
0000
FFFE
FFFE
FFFE
FFFE
03C0
03C0
03C0
03C0
03C0
03C0
03C0
03C0
03C0
03C0
03C0
03C0
03C0
03C0
03C0
03C0
03C0
03C0
03C0
ENDCHAR
STARTCHAR 0168
ENCODING 360
SWIDTH 510 0
DWIDTH 17 0
BBX 15 31 1 -1
BITMAP
0E00
1FE0
1FE0
0040
0000
0000
0000
F81E
F81E
F81E
F81E
F81E
F81E
F81E
F81E
F81E
F81E
F81E
F81E
F81E
F81E
F81E
F81E
781E
781E
7C3E
7EFC
3FFC
1FF8
0FF0
0180
ENDCHAR
STARTCHAR 0169
ENCODING 361
SWIDTH 510 0
DWIDTH 17 0
BBX 15 31 1 -1
BITMAP
0E00
1FE0
1FE0
0040
0000
0000
0000
F81E
F81E
F81E
F81E
F81E
F81E
F81E
F81E
F81E
F81E
F81E
F81E
F81E
F81E
F81E
F81E
781E
781E
7C3E
7EFC
3FFC
1FF8
0FF0
0180
ENDCHAR
STARTCHAR 016A
ENCODING 362
SWIDTH 510 0
DWIDTH 17 0
BBX 15 30 1 -1
BITMAP
1FF8
1FF8
1FF8
0000
0000
0000
F81E
F81E
F81E
F81E
F81E
F81E
F81E
F81E
F81E
F81E
F81E
F81E
F81E
F81E
F81E
F81E
781E
781E
7C3E
7EFC
3FFC
1FF8
0FF0
0180
ENDCHAR
STARTCHAR 016B
ENCODING 363
SWIDTH 510 0
DWIDTH 17 0
BBX 15 30 1 -1
BITMAP
1FF8
1FF8
1FF8
0000
0000
0000
F81E
F81E
F81E
F81E
F81E
F81E
F81E
F81E
F81E
F81E
F81E
F81E
F81E
F81E
F81E
F81E
781E
781E
7C3E
7EFC
3FFC
1FF8
0FF0
0180
ENDCHAR
STARTCHAR 016E
ENCODING 366
SWIDTH 510 0
DWIDTH 17 0
BBX 15 33 1 -1
BITMAP
03C0
07E0
0E60
0C60
0660
07C0
0380
0000
0000
F81E
F81E
F81E
F81E
F81E
F81E
F81E
F81E
F81E
F81E
F81E
F81E
F81E
F81E
F81E
F81E
781E
781E
7C3E
7EFC
3FFC
1FF8
0FF0
0180
ENDCHAR
STARTCHAR 016F
ENCODING 367
SWIDTH 510 0
DWIDTH 17 0
BBX 15 33 1 -1
BITMAP
03C0
07E0
0E60
0C60
0660
07C0
0380
0000
0000
F81E
F81E
F81E
F81E
F81E
F81E
F81E
F81E
F81E
F81E
F81E
F81E
F81E
F81E
F81E
F81E
781E
781E
7C3E
7EFC
3FFC
1FF8
0FF0
0180
ENDCHAR
STARTCHAR 0170
ENCODING 368
SWIDTH 510 0
DWIDTH 17 0
BBX 15 31 1 -1
BITMAP
039C
071C
0E38
0E30
1C60
0000
0000
F81E
F81E
F81E
F81E
F81E
F81E
F81E
F81E
F81E
F81E
F81E
F81E
F81E
F81E
F81E
F81E
781E
781E
7C3E
7EFC
3FFC
1FF8
0FF0
0180
ENDCHAR
STARTCHAR 0171
ENCODING 369
SWIDTH 510 0
DWIDTH 17 0
BBX 15 31 1 -1
BITMAP
039C
071C
0E38
0E30
1C60
0000
0000
F81E
F81E
F81E
F81E
F81E
F81E
F81E
F81E
F81E
F81E
F81E
F81E
F81E
F81E
F81E
F81E
781E
781E
7C3E
7EFC
3FFC
1FF8
0FF0
0180
ENDCHAR
STARTCHAR 0172
ENCODING 370
SWIDTH 510 0
DWIDTH 17 0
BBX 15 30 1 -7
BITMAP
F81E
F81E
F81E
F81E
F81E
F81E
F81E
F81E
F81E
F81E
F81E
F81E
F81E
F81E
F81E
F81E
781E
781E
7C3E
7EFC
3FFC
1FF8
0FF0
0380
0700
0600
0620
07F0
03E0
0080
ENDCHAR
STARTCHAR 0173
ENCODING 371
SWIDTH 510 0
DWIDTH 17 0
BBX 15 30 1 -7
BITMAP
F81E
F81E
F81E
F81E
F81E
F81E
F81E
F81E
F81E
F81E
F81E
F81E
F81E
F81E
F81E
F81E
781E
781E
7C3E
7EFC
3FFC
1FF8
0FF0
0380
0700
0600
0620
07F0
03E0
0080
ENDCHAR
STARTCHAR 0176
ENCODING 374
SWIDTH 510 0
DWIDTH 17 0
BBX 15 30 1 0
BITMAP
07C0
07E0
0EE0
1E70
3C38
0000
0000
F81E
F81E
F81E
F81E
F81E
F81E
F81E
F81E
F81E
F81E
F81E
F81E
783E
7C7C
3FFC
3FF8
0FF0
03C0
03C0
03C0
03C0
03C0
03C0
ENDCHAR
STARTCHAR 0177
ENCODING 375
SWIDTH 510 0
DWIDTH 17 0
BBX 15 30 1 0
BITMAP
07C0
07E0
0EE0
1E70
3C38
0000
0000
F81E
F81E
F81E
F81E
F81E
F81E
F81E
F81E
F81E
F81E
F81E
F81E
783E
7C7C
3FFC
3FF8
0FF0
03C0
03C0
03C0
03C0
03C0
03C0
ENDCHAR
STARTCHAR 0178
ENCODING 376
SWIDTH 510 0
DWIDTH 17 0
BBX 15 30 1 0
BITMAP
3C3C
7C7C
7E7C
7C7C
3C3C
0000
0000
F81E
F81E
F81E
F81E
F81E
F81E
F81E
F81E
F81E
F81E
F81E
F81E
783E
7C7C
3FFC
3FF8
0FF0
03C0
03C0
03C0
03C0
03C0
03C0
ENDCHAR
STARTCHAR 0179
ENCODING 377
SWIDTH 510 0
DWIDTH 17 0
BBX 16 30 1 0
BITMAP
00F0
00E0
01C0
0180
0380
0000
0000
FFFF
FFFF
FFFE
FFFE
007C
0078
00F8
00F0
01F0
03E0
03C0
07C0
0780
0F80
1F00
1E00
3E00
3C00
7C00
7FFE
FFFE
FFFE
FFFE
ENDCHAR
STARTCHAR 017A
ENCODING 378
SWIDTH 510 0
DWIDTH 17 0
BBX 16 30 1 0
BITMAP
00F0
00E0
01C0
0180
0380
0000
0000
FFFF
FFFF
FFFE
FFFE
007C
0078
00F8
00F0
01F0
03E0
03C0
07C0
0780
0F80
1F00
1E00
3E00
3C00
7C00
7FFE
FFFE
FFFE
FFFE
ENDCHAR
STARTCHAR 017B
ENCODING 379
SWIDTH 510 0
DWIDTH 17 0
BBX 16 31 1 0
BITMAP
0180
03C0
07E0
07E0
03C0
0000
0000
0000
FFFF
FFFF
FFFE
FFFE
007C
0078
00F8
00F0
01F0
03E0
03C0
07C0
0780
0F80
1F00
1E00
3E00
3C00
7C00
7FFE
FFFE
FFFE
FFFE
ENDCHAR
STARTCHAR 017C
ENCODING 380
SWIDTH 510 0
DWIDTH 17 0
BBX 16 31 1 0
BITMAP
0180
03C0
07E0
07E0
03C0
0000
0000
0000
FFFF
FFFF
FFFE
FFFE
007C
0078
00F8
00F0
01F0
03E0
03C0
07C0
0780
0F80
1F00
1E00
3E00
3C00
7C00
7FFE
FFFE
FFFE
FFFE
ENDCHAR
STARTCHAR 017D
ENCODING 381
SWIDTH 510 0
DWIDTH 17 0
BBX 16 30 1 0
BITMAP
1C78
0E70
0FE0
07E0
0000
0000
0000
FFFF
FFFF
FFFE
FFFE
007C
0078
00F8
00F0
01F0
03E0
03C0
07C0
0780
0F80
1F00
1E00
3E00
3C00
7C00
7FFE
FFFE
FFFE
FFFE
ENDCHAR
STARTCHAR 017E
ENCODING 382
SWIDTH 510 0
DWIDTH 17 0
BBX 16 30 1 0
BITMAP
1C78
0E70
0FE0
07E0
0000
0000
0000
FFFF
FFFF
FFFE
FFFE
007C
0078
00F8
00F0
01F0
03E0
03C0
07C0
0780
0F80
1F00
1E00
3E00
3C00
7C00
7FFE
FFFE
FFFE
FFFE
ENDCHAR
STARTCHAR 01A0
ENCODING 416
SWIDTH 810 0
DWIDTH 27 0
BBX 25 27 1 -1
BITMAP
00000700
00000E00
003F0E00
01FFFC00
07FFF000
0FFFF800
1FC1FC00
3F003E00
3E001F00
7C000F00
78000F80
F8000780
F8000780
F0000780
F0000780
F0000780
F8000780
78000F80
78000F80
7C001F00
3E003F00
3F007E00
1FF3FC00
0FFFF800
03FFF000
00FFC000
000C0000
ENDCHAR
STARTCHAR 01A1
ENCODING 417
SWIDTH 810 0
DWIDTH 27 0
BBX 25 27 1 -1
BITMAP
00000700
00000E00
003F0E00
01FFFC00
07FFF000
0FFFF800
1FC1FC00
3F003E00
3E001F00
7C000F00
78000F80
F8000780
F8000780
F0000780
F0000780
F0000780
F8000780
78000F80
78000F80
7C001F00
3E003F00
3F007E00
1FF3FC00
0FFFF800
03FFF000
00FFC000
000C0000
ENDCHAR
STARTCHAR 01AF
ENCODING 431
SWIDTH 510 0
DWIDTH 17 0
BBX 18 27 1 -1
BITMAP
0001C0
0001C0
000180
F81F00
F81E00
F81E00
F81E00
F81E00
F81E00
F81E00
F81E00
F81E00
F81E00
F81E00
F81E00
F81E00
F81E00
F81E00
F81E00
781E00
781E00
7C3E00
7EFC00
3FFC00
1FF800
0FF000
018000
ENDCHAR
STARTCHAR 01B0
ENCODING 432
SWIDTH 510 0
DWIDTH 17 0
BBX 18 27 1 -1
BITMAP
0001C0
0001C0
000180
F81F00
F81E00
F81E00
F81E00
F81E00
F81E00
F81E00
F81E00
F81E00
F81E00
F81E00
F81E00
F81E00
F81E00
F81E00
F81E00
781E00
781E00
7C3E00
7EFC00
3FFC00
1FF800
0FF000
018000
ENDCHAR
STARTCHAR 01CD
ENCODING 461
SWIDTH 540 0
DWIDTH 18 0
BBX 16 30 2 0
BITMAP
3870
1CE0
0FC0
0FC0
0000
0000
0780
1FE0
3FF0
7FF8
F87C
F03C
F03C
F03C
F03C
F03C
F03C
F03C
F03C
F03C
F03C
F03C
F03C
F03C
F03C
F03C
FFFF
FFFF
FFFF
FFFF
ENDCHAR
STARTCHAR 01CE
ENCODING 462
SWIDTH 540 0
DWIDTH 18 0
BBX 16 30 2 0
BITMAP
3870
1CE0
0FC0
0FC0
0000
0000
0780
1FE0
3FF0
7FF8
F87C
F03C
F03C
F03C
F03C
F03C
F03C
F03C
F03C
F03C
F03C
F03C
F03C
F03C
F03C
F03C
FFFF
FFFF
FFFF
FFFF
ENDCHAR
STARTCHAR 01CF
ENCODING 463
SWIDTH 210 0
DWIDTH 7 0
BBX 10 21 -1 0
BITMAP
E3C0
7380
7F00
3F00
0000
0000
0000
1E00
1E00
1E00
1E00
1E00
1E00
1E00
1E00
1E00
1E00
1E00
1E00
1E00
1E00
ENDCHAR
STARTCHAR 01D0
ENCODING 464
SWIDTH 210 0
DWIDTH 7 0
BBX 10 21 -1 0
BITMAP
E3C0
7380
7F00
3F00
0000
0000
0000
1E00
1E00
1E00
1E00
1E00
1E00
1E00
1E00
1E00
1E00
1E00
1E00
1E00
1E00
ENDCHAR
STARTCHAR 01D1
ENCODING 465
SWIDTH 810 0
DWIDTH 27 0
BBX 25 31 1 -1
BITMAP
00E3C000
00738000
007F0000
003E0000
00000000
00000000
003F0000
01FFE000
07FFF000
0FFFF800
1FC1FC00
3F003E00
3E001F00
7C000F00
78000F80
F8000780
F8000780
F0000780
F0000780
F0000780
F8000780
78000F80
78000F80
7C001F00
3E003F00
3F007E00
1FF3FC00
0FFFF800
03FFF000
00FFC000
000C0000
ENDCHAR
STARTCHAR 01D2
ENCODING 466
SWIDTH 810 0
DWIDTH 27 0
BBX 25 31 1 -1
BITMAP
00E3C000
00738000
007F0000
003E0000
00000000
00000000
003F0000
01FFE000
07FFF000
0FFFF800
1FC1FC00
3F003E00
3E001F00
7C000F00
78000F80
F8000780
F8000780
F0000780
F0000780
F0000780
F8000780
78000F80
78000F80
7C001F00
3E003F00
3F007E00
1FF3FC00
0FFFF800
03FFF000
00FFC000
000C0000
ENDCHAR
STARTCHAR 01D3
ENCODING 467
SWIDTH 510 0
DWIDTH 17 0
BBX 15 31 1 -1
BITMAP
1C78
0E70
0FE0
07E0
0000
0000
0000
F81E
F81E
F81E
F81E
F81E
F81E
F81E
F81E
F81E
F81E
F81E
F81E
F81E
F81E
F81E
F81E
781E
781E
7C3E
7EFC
3FFC
1FF8
0FF0
0180
ENDCHAR
STARTCHAR 01D4
ENCODING 468
SWIDTH 510 0
DWIDTH 17 0
BBX 15 31 1 -1
BITMAP
1C78
0E70
0FE0
07E0
0000
0000
0000
F81E
F81E
F81E
F81E
F81E
F81E
F81E
F81E
F81E
F81E
F81E
F81E
F81E
F81E
F81E
F81E
781E
781E
7C3E
7EFC
3FFC
1FF8
0FF0
0180
ENDCHAR
STARTCHAR 02C6
ENCODING 710
SWIDTH 300 0
DWIDTH 10 0
BBX 11 5 0 25
BITMAP
1F00
3F00
3B80
73C0
E1E0
ENDCHAR
STARTCHAR 02C7
ENCODING 711
SWIDTH 300 0
DWIDTH 10 0
BBX 10 4 0 26
BITMAP
F1C0
7BC0
3F80
1F00
ENDCHAR
STARTCHAR 02D8
ENCODING 728
SWIDTH 270 0
DWIDTH 9 0
BBX 9 5 0 25
BITMAP
E180
E180
7F80
7F00
0C00
ENDCHAR
STARTCHAR 02D9
ENCODING 729
SWIDTH 150 0
DWIDTH 5 0
BBX 6 5 0 26
BITMAP
70
F8
FC
F8
78
ENDCHAR
STARTCHAR 02DA
ENCODING 730
SWIDTH 180 0
DWIDTH 6 0
BBX 7 7 0 25
BITMAP
38
7C
C6
C6
CE
7C
38
ENDCHAR
STARTCHAR 02DB
ENCODING 731
SWIDTH 210 0
DWIDTH 7 0
BBX 7 7 0 -7
BITMAP
78
E0
C0
C4
FE
7E
10
ENDCHAR
STARTCHAR 02DC
ENCODING 732
SWIDTH 210 0
DWIDTH 7 0
BBX 8 4 0 26
BITMAP
60
FF
FF
06
ENDCHAR
STARTCHAR 02DD
ENCODING 733
SWIDTH 330 0
DWIDTH 11 0
BBX 11 5 0 25
BITMAP
38E0
39C0
71C0
6380
C300
ENDCHAR
STARTCHAR 0300
ENCODING 768
SWIDTH 0 0
DWIDTH 0 0
BBX 5 5 -5 25
BITMAP
E0
E0
70
30
18
ENDCHAR
STARTCHAR 0301
ENCODING 769
SWIDTH 0 0
DWIDTH 0 0
BBX 5 5 -5 25
BITMAP
38
70
60
E0
C0
ENDCHAR
STARTCHAR 0302
ENCODING 770
SWIDTH 0 0
DWIDTH 0 0
BBX 11 5 -11 25
BITMAP
1F00
1F80
3B80
71C0
F0E0
ENDCHAR
STARTCHAR 0303
ENCODING 771
SWIDTH 0 0
DWIDTH 0 0
BBX 8 4 -8 26
BITMAP
70
FF
FF
06
ENDCHAR
STARTCHAR 0304
ENCODING 772
SWIDTH 0 0
DWIDTH 0 0
BBX 9 3 -9 26
BITMAP
FF80
FF80
FF80
ENDCHAR
STARTCHAR 0306
ENCODING 774
SWIDTH 0 0
DWIDTH 0 0
BBX 10 5 -10 25
BITMAP
E1C0
61C0
7F80
3F80
0C00
ENDCHAR
STARTCHAR 0307
ENCODING 775
SWIDTH 0 0
DWIDTH 0 0
BBX 5 5 -5 26
BITMAP
70
F8
F8
F8
70
ENDCHAR
STARTCHAR 0308
ENCODING 776
SWIDTH 0 0
DWIDTH 0 0
BBX 13 5 -13 25
BITMAP
7070
F8F8
F8F8
F8F8
7070
ENDCHAR
STARTCHAR 0309
ENCODING 777
SWIDTH 0 0
DWIDTH 0 0
BBX 3 7 -3 25
BITMAP
E0
E0
E0
E0
C0
C0
E0
ENDCHAR
STARTCHAR 030A
ENCODING 778
SWIDTH 0 0
DWIDTH 0 0
BBX 7 7 -7 25
BITMAP
38
7C
C6
C6
E6
7C
38
ENDCHAR
STARTCHAR 030B
ENCODING 779
SWIDTH 0 0
DWIDTH 0 0
BBX 11 5 -11 25
BITMAP
38E0
39C0
7180
6380
C300
ENDCHAR
STARTCHAR 030C
ENCODING 780
SWIDTH 0 0
DWIDTH 0 0
BBX 10 4 -10 26
BITMAP
E3C0
F780
7F00
3E00
ENDCHAR
STARTCHAR 031B
ENCODING 795
SWIDTH 0 0
DWIDTH 0 0
BBX 4 4 -4 22
BITMAP
70
70
60
C0
ENDCHAR
STARTCHAR 0323
ENCODING 803
SWIDTH 0 0
DWIDTH 0 0
BBX 5 5 -5 -9
BITMAP
F0
F8
F8
F8
70
ENDCHAR
STARTCHAR 0326
ENCODING 806
SWIDTH 0 0
DWIDTH 0 0
BBX 5 5 -5 -7
BITMAP
38
70
70
E0
E0
ENDCHAR
STARTCHAR 0327
ENCODING 807
SWIDTH 0 0
DWIDTH 0 0
BBX 7 7 -7 -7
BITMAP
18
18
1E
06
C6
FE
7C
ENDCHAR
STARTCHAR 0328
ENCODING 808
SWIDTH 0 0
DWIDTH 0 0
BBX 7 6 -7 -7
BITMAP
78
E0
C0
C4
FE
7C
ENDCHAR
STARTCHAR 0335
ENCODING 821
SWIDTH 0 0
DWIDTH 0 0
BBX 11 4 -11 5
BITMAP
FFE0
FFE0
FFE0
FFE0
ENDCHAR
STARTCHAR 1EA0
ENCODING 7840
SWIDTH 540 0
DWIDTH 18 0
BBX 16 33 2 -9
BITMAP
0780
1FE0
3FF0
7FF8
F87C
F03C
F03C
F03C
F03C
F03C
F03C
F03C
F03C
F03C
F03C
F03C
F03C
F03C
F03C
F03C
FFFF
FFFF
FFFF
FFFF
0000
0000
0000
0000
0780
07C0
0FC0
07C0
0780
ENDCHAR
STARTCHAR 1EA1
ENCODING 7841
SWIDTH 540 0
DWIDTH 18 0
BBX 16 33 2 -9
BITMAP
0780
1FE0
3FF0
7FF8
F87C
F03C
F03C
F03C
F03C
F03C
F03C
F03C
F03C
F03C
F03C
F03C
F03C
F03C
F03C
F03C
FFFF
FFFF
FFFF
FFFF
0000
0000
0000
0000
0780
07C0
0FC0
07C0
0780
ENDCHAR
STARTCHAR 1EA2
ENCODING 7842
SWIDTH 540 0
DWIDTH 18 0
BBX 16 32 2 0
BITMAP
0300
0380
0300
0300
0700
0700
0300
0000
0780
1FE0
3FF0
7FF8
F87C
F03C
F03C
F03C
F03C
F03C
F03C
F03C
F03C
F03C
F03C
F03C
F03C
F03C
F03C
F03C
FFFF
FFFF
FFFF
FFFF
ENDCHAR
STARTCHAR 1EA3
ENCODING 7843
SWIDTH 540 0
DWIDTH 18 0
BBX 16 32 2 0
BITMAP
0300
0380
0300
0300
0700
0700
0300
0000
0780
1FE0
3FF0
7FF8
F87C
F03C
F03C
F03C
F03C
F03C
F03C
F03C
F03C
F03C
F03C
F03C
F03C
F03C
F03C
F03C
FFFF
FFFF
FFFF
FFFF
ENDCHAR
STARTCHAR 1EA4
ENCODING 7844
SWIDTH 540 0
DWIDTH 18 0
BBX 16 33 2 0
BITMAP
0007
0007
000E
078C
0FDC
1FE0
3CF0
3870
0000
0780
1FE0
3FF0
7FF8
F87C
F03C
F03C
F03C
F03C
F03C
F03C
F03C
F03C
F03C
F03C
F03C
F03C
F03C
F03C
F03C
FFFF
FFFF
FFFF
FFFF
ENDCHAR
STARTCHAR 1EA5
ENCODING 7845
SWIDTH 540 0
DWIDTH 18 0
BBX 16 33 2 0
BITMAP
0007
0007
000E
078C
0FDC
1FE0
3CF0
3870
0000
0780
1FE0
3FF0
7FF8
F87C
F03C
F03C
F03C
F03C
F03C
F03C
F03C
F03C
F03C
F03C
F03C
F03C
F03C
F03C
F03C
FFFF
FFFF
FFFF
FFFF
ENDCHAR
STARTCHAR 1EA6
ENCODING 7846
SWIDTH 540 0
DWIDTH 18 0
BBX 19 33 -1 0
BITMAP
E00000
E00000
700000
30F000
39F800
03FC00
079C00
070E00
000000
00F000
03FC00
07FE00
0FFF00
1F0F80
1E0780
1E0780
1E0780
1E0780
1E0780
1E0780
1E0780
1E0780
1E0780
1E0780
1E0780
1E0780
1E0780
1E0780
1E0780
1FFFE0
1FFFE0
1FFFE0
1FFFE0
ENDCHAR
STARTCHAR 1EA7
ENCODING 7847
SWIDTH 540 0
DWIDTH 18 0
BBX 19 33 -1 0
BITMAP
E00000
E00000
700000
30F000
39F800
03FC00
079C00
070E00
000000
00F000
03FC00
07FE00
0FFF00
1F0F80
1E0780
1E0780
1E0780
1E0780
1E0780
1E0780
1E0780
1E0780
1E0780
1E0780
1E0780
1E0780
1E0780
1E0780
1E0780
1FFFE0
1FFFE0
1FFFE0
1FFFE0
ENDCHAR
STARTCHAR 1EA8
ENCODING 7848
SWIDTH 540 0
DWIDTH 18 0
BBX 16 34 2 0
BITMAP
000C
000C
000C
001C
079C
0FDC
1FE0
3CF0
3870
0000
0780
1FE0
3FF0
7FF8
F87C
F03C
F03C
F03C
F03C
F03C
F03C
F03C
F03C
F03C
F03C
F03C
F03C
F03C
F03C
F03C
FFFF
FFFF
FFFF
FFFF
ENDCHAR
STARTCHAR 1EA9
ENCODING 7849
SWIDTH 540 0
DWIDTH 18 0
BBX 16 34 2 0
BITMAP
000C
000C
000C
001C
079C
0FDC
1FE0
3CF0
3870
0000
0780
1FE0
3FF0
7FF8
F87C
F03C
F03C
F03C
F03C
F03C
F03C
F03C
F03C
F03C
F03C
F03C
F03C
F03C
F03C
F03C
FFFF
FFFF
FFFF
FFFF
ENDCHAR
STARTCHAR 1EAA
ENCODING 7850
SWIDTH 540 0
DWIDTH 18 0
BBX 16 34 2 0
BITMAP
01C0
01FE
01FE
0008
0780
0FC0
1FE0
3CF0
3870
0000
0780
1FE0
3FF0
7FF8
F87C
F03C
F03C
F03C
F03C
F03C
F03C
F03C
F03C
F03C
F03C
F03C
F03C
F03C
F03C
F03C
FFFF
FFFF
FFFF
FFFF
ENDCHAR
STARTCHAR 1EAB
ENCODING 7851
SWIDTH 540 0
DWIDTH 18 0
BBX 16 34 2 0
BITMAP
01C0
01FE
01FE
0008
0780
0FC0
1FE0
3CF0
3870
0000
0780
1FE0
3FF0
7FF8
F87C
F03C
F03C
F03C
F03C
F03C
F03C
F03C
F03C
F03C
F03C
F03C
F03C
F03C
F03C
F03C
FFFF
FFFF
FFFF
FFFF
ENDCHAR
STARTCHAR 1EAC
ENCODING 7852
SWIDTH 540 0
DWIDTH 18 0
BBX 16 39 2 -9
BITMAP
0780
0FC0
1FE0
3CF0
3870
0000
0780
1FE0
3FF0
7FF8
F87C
F03C
F03C
F03C
F03C
F03C
F03C
F03C
F03C
F03C
F03C
F03C
F03C
F03C
F03C
F03C
FFFF
FFFF
FFFF
FFFF
0000
0000
0000
0000
0780
07C0
0FC0
07C0
0780
ENDCHAR
STARTCHAR 1EAD
ENCODING 7853
SWIDTH 540 0
DWIDTH 18 0
BBX 16 39 2 -9
BITMAP
0780
0FC0
1FE0
3CF0
3870
0000
0780
1FE0
3FF0
7FF8
F87C
F03C
F03C
F03C
F03C
F03C
F03C
F03C
F03C
F03C
F03C
F03C
F03C
F03C
F03C
F03C
FFFF
FFFF
FFFF
FFFF
0000
0000
0000
0000
0780
07C0
0FC0
07C0
0780
ENDCHAR
STARTCHAR 1EAE
ENCODING 7854
SWIDTH 540 0
DWIDTH 18 0
BBX 16 34 2 0
BITMAP
00E0
01C0
0180
0380
3870
3870
1FE0
0FC0
0780
0000
0780
1FE0
3FF0
7FF8
F87C
F03C
F03C
F03C
F03C
F03C
F03C
F03C
F03C
F03C
F03C
F03C
F03C
F03C
F03C
F03C
FFFF
FFFF
FFFF
FFFF
ENDCHAR
STARTCHAR 1EAF
ENCODING 7855
SWIDTH 540 0
DWIDTH 18 0
BBX 16 34 2 0
BITMAP
00E0
01C0
0180
0380
3870
3870
1FE0
0FC0
0780
0000
0780
1FE0
3FF0
7FF8
F87C
F03C
F03C
F03C
F03C
F03C
F03C
F03C
F03C
F03C
F03C
F03C
F03C
F03C
F03C
F03C
FFFF
FFFF
FFFF
FFFF
ENDCHAR
STARTCHAR 1EB0
ENCODING 7856
SWIDTH 540 0
DWIDTH 18 0
BBX 16 34 2 0
BITMAP
1C00
0C00
0E00
0700
3870
3870
1FE0
0FC0
0780
0000
0780
1FE0
3FF0
7FF8
F87C
F03C
F03C
F03C
F03C
F03C
F03C
F03C
F03C
F03C
F03C
F03C
F03C
F03C
F03C
F03C
FFFF
FFFF
FFFF
FFFF
ENDCHAR
STARTCHAR 1EB1
ENCODING 7857
SWIDTH 540 0
DWIDTH 18 0
BBX 16 34 2 0
BITMAP
1C00
0C00
0E00
0700
3870
3870
1FE0
0FC0
0780
0000
0780
1FE0
3FF0
7FF8
F87C
F03C
F03C
F03C
F03C
F03C
F03C
F03C
F03C
F03C
F03C
F03C
F03C
F03C
F03C
F03C
FFFF
FFFF
FFFF
FFFF
ENDCHAR
STARTCHAR 1EB2
ENCODING 7858
SWIDTH 540 0
DWIDTH 18 0
BBX 16 35 2 0
BITMAP
0380
0380
0300
0300
0300
3B70
3870
1FE0
0FC0
0780
0000
0780
1FE0
3FF0
7FF8
F87C
F03C
F03C
F03C
F03C
F03C
F03C
F03C
F03C
F03C
F03C
F03C
F03C
F03C
F03C
F03C
FFFF
FFFF
FFFF
FFFF
ENDCHAR
STARTCHAR 1EB3
ENCODING 7859
SWIDTH 540 0
DWIDTH 18 0
BBX 16 35 2 0
BITMAP
0380
0380
0300
0300
0300
3B70
3870
1FE0
0FC0
0780
0000
0780
1FE0
3FF0
7FF8
F87C
F03C
F03C
F03C
F03C
F03C
F03C
F03C
F03C
F03C
F03C
F03C
F03C
F03C
F03C
F03C
FFFF
FFFF
FFFF
FFFF
ENDCHAR
STARTCHAR 1EB4
ENCODING 7860
SWIDTH 540 0
DWIDTH 18 0
BBX 16 34 2 0
BITMAP
1F20
1FE0
1FE0
0000
3870
3870
1FE0
0FC0
0780
0000
0780
1FE0
3FF0
7FF8
F87C
F03C
F03C
F03C
F03C
F03C
F03C
F03C
F03C
F03C
F03C
F03C
F03C
F03C
F03C
F03C
FFFF
FFFF
FFFF
FFFF
ENDCHAR
STARTCHAR 1EB5
ENCODING 7861
SWIDTH 540 0
DWIDTH 18 0
BBX 16 34 2 0
BITMAP
1F20
1FE0
1FE0
0000
3870
3870
1FE0
0FC0
0780
0000
0780
1FE0
3FF0
7FF8
F87C
F03C
F03C
F03C
F03C
F03C
F03C
F03C
F03C
F03C
F03C
F03C
F03C
F03C
F03C
F03C
FFFF
FFFF
FFFF
FFFF
ENDCHAR
STARTCHAR 1EB6
ENCODING 7862
SWIDTH 540 0
DWIDTH 18 0
BBX 16 39 2 -9
BITMAP
3870
3870
1FE0
0FC0
0780
0000
0780
1FE0
3FF0
7FF8
F87C
F03C
F03C
F03C
F03C
F03C
F03C
F03C
F03C
F03C
F03C
F03C
F03C
F03C
F03C
F03C
FFFF
FFFF
FFFF
FFFF
0000
0000
0000
0000
0780
07C0
0FC0
07C0
0780
ENDCHAR
STARTCHAR 1EB7
ENCODING 7863
SWIDTH 540 0
DWIDTH 18 0
BBX 16 39 2 -9
BITMAP
3870
3870
1FE0
0FC0
0780
0000
0780
1FE0
3FF0
7FF8
F87C
F03C
F03C
F03C
F03C
F03C
F03C
F03C
F03C
F03C
F03C
F03C
F03C
F03C
F03C
F03C
FFFF
FFFF
FFFF
FFFF
0000
0000
0000
0000
0780
07C0
0FC0
07C0
0780
ENDCHAR
STARTCHAR 1EB8
ENCODING 7864
SWIDTH 510 0
DWIDTH 17 0
BBX 16 32 1 -9
BITMAP
3FF0
3FF0
3FF0
3FF0
3C00
3C00
3C00
3C00
3C00
FFF8
FFF8
FFF8
FFF8
3C00
3C00
3C00
3C00
3C00
3C00
3FFF
3FFF
3FFF
3FFF
0000
0000
0000
0000
01E0
01F0
03F0
01F0
01E0
ENDCHAR
STARTCHAR 1EB9
ENCODING 7865
SWIDTH 510 0
DWIDTH 17 0
BBX 16 32 1 -9
BITMAP
3FF0
3FF0
3FF0
3FF0
3C00
3C00
3C00
3C00
3C00
FFF8
FFF8
FFF8
FFF8
3C00
3C00
3C00
3C00
3C00
3C00
3FFF
3FFF
3FFF
3FFF
0000
0000
0000
0000
01E0
01F0
03F0
01F0
01E0
ENDCHAR
STARTCHAR 1EBA
ENCODING 7866
SWIDTH 510 0
DWIDTH 17 0
BBX 16 32 1 0
BITMAP
0300
0300
0300
0700
0700
0700
0300
0000
0000
3FF0
3FF0
3FF0
3FF0
3C00
3C00
3C00
3C00
3C00
FFF8
FFF8
FFF8
FFF8
3C00
3C00
3C00
3C00
3C00
3C00
3FFF
3FFF
3FFF
3FFF
ENDCHAR
STARTCHAR 1EBB
ENCODING 7867
SWIDTH 510 0
DWIDTH 17 0
BBX 16 32 1 0
BITMAP
0300
0300
0300
0700
0700
0700
0300
0000
0000
3FF0
3FF0
3FF0
3FF0
3C00
3C00
3C00
3C00
3C00
FFF8
FFF8
FFF8
FFF8
3C00
3C00
3C00
3C00
3C00
3C00
3FFF
3FFF
3FFF
3FFF
ENDCHAR
STARTCHAR 1EBC
ENCODING 7868
SWIDTH 510 0
DWIDTH 17 0
BBX 16 30 1 0
BITMAP
1C00
3FC0
3FC0
0080
0000
0000
0000
3FF0
3FF0
3FF0
3FF0
3C00
3C00
3C00
3C00
3C00
FFF8
FFF8
FFF8
FFF8
3C00
3C00
3C00
3C00
3C00
3C00
3FFF
3FFF
3FFF
3FFF
ENDCHAR
STARTCHAR 1EBD
ENCODING 7869
SWIDTH 510 0
DWIDTH 17 0
BBX 16 30 1 0
BITMAP
1C00
3FC0
3FC0
0080
0000
0000
0000
3FF0
3FF0
3FF0
3FF0
3C00
3C00
3C00
3C00
3C00
FFF8
FFF8
FFF8
FFF8
3C00
3C00
3C00
3C00
3C00
3C00
3FFF
3FFF
3FFF
3FFF
ENDCHAR
STARTCHAR 1EBE
ENCODING 7870
SWIDTH 510 0
DWIDTH 17 0
BBX 16 33 1 0
BITMAP
0007
0007
000E
078C
0FDC
1DE0
3CE0
3870
0000
0000
3FF0
3FF0
3FF0
3FF0
3C00
3C00
3C00
3C00
3C00
FFF8
FFF8
FFF8
FFF8
3C00
3C00
3C00
3C00
3C00
3C00
3FFF
3FFF
3FFF
3FFF
ENDCHAR
STARTCHAR 1EBF
ENCODING 7871
SWIDTH 510 0
DWIDTH 17 0
BBX 16 33 1 0
BITMAP
0007
0007
000E
078C
0FDC
1DE0
3CE0
3870
0000
0000
3FF0
3FF0
3FF0
3FF0
3C00
3C00
3C00
3C00
3C00
FFF8
FFF8
FFF8
FFF8
3C00
3C00
3C00
3C00
3C00
3C00
3FFF
3FFF
3FFF
3FFF
ENDCHAR
STARTCHAR 1EC0
ENCODING 7872
SWIDTH 510 0
DWIDTH 17 0
BBX 19 33 -2 0
BITMAP
E00000
E00000
700000
30F000
39F800
03BC00
079C00
070E00
000000
000000
07FE00
07FE00
07FE00
07FE00
078000
078000
078000
078000
078000
1FFF00
1FFF00
1FFF00
1FFF00
078000
078000
078000
078000
078000
078000
07FFE0
07FFE0
07FFE0
07FFE0
ENDCHAR
STARTCHAR 1EC1
ENCODING 7873
SWIDTH 510 0
DWIDTH 17 0
BBX 19 33 -2 0
BITMAP
E00000
E00000
700000
30F000
39F800
03BC00
079C00
070E00
000000
000000
07FE00
07FE00
07FE00
07FE00
078000
078000
078000
078000
078000
1FFF00
1FFF00
1FFF00
1FFF00
078000
078000
078000
078000
078000
078000
07FFE0
07FFE0
07FFE0
07FFE0
ENDCHAR
STARTCHAR 1EC2
ENCODING 7874
SWIDTH 510 0
DWIDTH 17 0
BBX 16 34 1 0
BITMAP
000C
000C
001C
001C
079C
0FDC
1DE0
3CE0
3870
0000
0000
3FF0
3FF0
3FF0
3FF0
3C00
3C00
3C00
3C00
3C00
FFF8
FFF8
FFF8
FFF8
3C00
3C00
3C00
3C00
3C00
3C00
3FFF
3FFF
3FFF
3FFF
ENDCHAR
STARTCHAR 1EC3
ENCODING 7875
SWIDTH 510 0
DWIDTH 17 0
BBX 16 34 1 0
BITMAP
000C
000C
001C
001C
079C
0FDC
1DE0
3CE0
3870
0000
0000
3FF0
3FF0
3FF0
3FF0
3C00
3C00
3C00
3C00
3C00
FFF8
FFF8
FFF8
FFF8
3C00
3C00
3C00
3C00
3C00
3C00
3FFF
3FFF
3FFF
3FFF
ENDCHAR
STARTCHAR 1EC4
ENCODING 7876
SWIDTH 510 0
DWIDTH 17 0
BBX 16 34 1 0
BITMAP
01C0
01FE
01FE
0018
0780
0FC0
1DE0
3CE0
3870
0000
0000
3FF0
3FF0
3FF0
3FF0
3C00
3C00
3C00
3C00
3C00
FFF8
FFF8
FFF8
FFF8
3C00
3C00
3C00
3C00
3C00
3C00
3FFF
3FFF
3FFF
3FFF
ENDCHAR
STARTCHAR 1EC5
ENCODING 7877
SWIDTH 510 0
DWIDTH 17 0
BBX 16 34 1 0
BITMAP
01C0
01FE
01FE
0018
0780
0FC0
1DE0
3CE0
3870
0000
0000
3FF0
3FF0
3FF0
3FF0
3C00
3C00
3C00
3C00
3C00
FFF8
FFF8
FFF8
FFF8
3C00
3C00
3C00
3C00
3C00
3C00
3FFF
3FFF
3FFF
3FFF
ENDCHAR
STARTCHAR 1EC6
ENCODING 7878
SWIDTH 510 0
DWIDTH 17 0
BBX 16 39 1 -9
BITMAP
0780
0FC0
1DE0
3CE0
3870
0000
0000
3FF0
3FF0
3FF0
3FF0
3C00
3C00
3C00
3C00
3C00
FFF8
FFF8
FFF8
FFF8
3C00
3C00
3C00
3C00
3C00
3C00
3FFF
3FFF
3FFF
3FFF
0000
0000
0000
0000
01E0
01F0
03F0
01F0
01E0
ENDCHAR
STARTCHAR 1EC7
ENCODING 7879
SWIDTH 510 0
DWIDTH 17 0
BBX 16 39 1 -9
BITMAP
0780
0FC0
1DE0
3CE0
3870
0000
0000
3FF0
3FF0
3FF0
3FF0
3C00
3C00
3C00
3C00
3C00
FFF8
FFF8
FFF8
FFF8
3C00
3C00
3C00
3C00
3C00
3C00
3FFF
3FFF
3FFF
3FFF
0000
0000
0000
0000
01E0
01F0
03F0
01F0
01E0
ENDCHAR
STARTCHAR 1EC8
ENCODING 7880
SWIDTH 210 0
DWIDTH 7 0
BBX 4 23 2 0
BITMAP
60
60
60
E0
E0
E0
60
00
00
F0
F0
F0
F0
F0
F0
F0
F0
F0
F0
F0
F0
F0
F0
ENDCHAR
STARTCHAR 1EC9
ENCODING 7881
SWIDTH 210 0
DWIDTH 7 0
BBX 4 23 2 0
BITMAP
60
60
60
E0
E0
E0
60
00
00
F0
F0
F0
F0
F0
F0
F0
F0
F0
F0
F0
F0
F0
F0
ENDCHAR
STARTCHAR 1ECA
ENCODING 7882
SWIDTH 210 0
DWIDTH 7 0
BBX 9 35 -1 -8
BITMAP
0800
0C00
1C00
FF80
3E00
1E00
3E00
2200
0000
0000
0000
0000
1E00
1E00
1E00
1E00
1E00
1E00
1E00
1E00
1E00
1E00
1E00
1E00
1E00
1E00
0000
0000
0000
0000
1E00
3E00
3E00
3E00
1C00
ENDCHAR
STARTCHAR 1ECB
ENCODING 7883
SWIDTH 210 0
DWIDTH 7 0
BBX 9 35 -1 -8
BITMAP
0800
0C00
1C00
FF80
3E00
1E00
3E00
2200
0000
0000
0000
0000
1E00
1E00
1E00
1E00
1E00
1E00
1E00
1E00
1E00
1E00
1E00
1E00
1E00
1E00
0000
0000
0000
0000
1E00
3E00
3E00
3E00
1C00
ENDCHAR
STARTCHAR 1ECC
ENCODING 7884
SWIDTH 810 0
DWIDTH 27 0
BBX 25 33 1 -9
BITMAP
003F0000
01FFE000
07FFF000
0FFFF800
1FC1FC00
3F003E00
3E001F00
7C000F00
78000F80
F8000780
F8000780
F0000780
F0000780
F0000780
F8000780
78000F80
78000F80
7C001F00
3E003F00
3F007E00
1FF3FC00
0FFFF800
03FFF000
00FFC000
000C0000
00000000
00000000
00000000
001E0000
003E0000
003E0000
003E0000
001C0000
ENDCHAR
STARTCHAR 1ECD
ENCODING 7885
SWIDTH 810 0
DWIDTH 27 0
BBX 25 33 1 -9
BITMAP
003F0000
01FFE000
07FFF000
0FFFF800
1FC1FC00
3F003E00
3E001F00
7C000F00
78000F80
F8000780
F8000780
F0000780
F0000780
F0000780
F8000780
78000F80
78000F80
7C001F00
3E003F00
3F007E00
1FF3FC00
0FFFF800
03FFF000
00FFC000
000C0000
00000000
00000000
00000000
001E0000
003E0000
003E0000
003E0000
001C0000
ENDCHAR
STARTCHAR 1ECE
ENCODING 7886
SWIDTH 810 0
DWIDTH 27 0
BBX 25 33 1 -1
BITMAP
001C0000
000C0000
000C0000
001C0000
001C0000
001C0000
001C0000
00000000
003F0000
01FFE000
07FFF000
0FFFF800
1FC1FC00
3F003E00
3E001F00
7C000F00
78000F80
F8000780
F8000780
F0000780
F0000780
F0000780
F8000780
78000F80
78000F80
7C001F00
3E003F00
3F007E00
1FF3FC00
0FFFF800
03FFF000
00FFC000
000C0000
ENDCHAR
STARTCHAR 1ECF
ENCODING 7887
SWIDTH 810 0
DWIDTH 27 0
BBX 25 33 1 -1
BITMAP
001C0000
000C0000
000C0000
001C0000
001C0000
001C0000
001C0000
00000000
003F0000
01FFE000
07FFF000
0FFFF800
1FC1FC00
3F003E00
3E001F00
7C000F00
78000F80
F8000780
F8000780
F0000780
F0000780
F0000780
F8000780
78000F80
78000F80
7C001F00
3E003F00
3F007E00
1FF3FC00
0FFFF800
03FFF000
00FFC000
000C0000
ENDCHAR
STARTCHAR 1ED0
ENCODING 7888
SWIDTH 810 0
DWIDTH 27 0
BBX 25 34 1 -1
BITMAP
00001C00
00001800
00003800
003E3000
003F6000
00778000
00F38000
01E1C000
00000000
003F0000
01FFE000
07FFF000
0FFFF800
1FC1FC00
3F003E00
3E001F00
7C000F00
78000F80
F8000780
F8000780
F0000780
F0000780
F0000780
F8000780
78000F80
78000F80
7C001F00
3E003F00
3F007E00
1FF3FC00
0FFFF800
03FFF000
00FFC000
000C0000
ENDCHAR
STARTCHAR 1ED1
ENCODING 7889
SWIDTH 810 0
DWIDTH 27 0
BBX 25 34 1 -1
BITMAP
00001C00
00001800
00003800
003E3000
003F6000
00778000
00F38000
01E1C000
00000000
003F0000
01FFE000
07FFF000
0FFFF800
1FC1FC00
3F003E00
3E001F00
7C000F00
78000F80
F8000780
F8000780
F0000780
F0000780
F0000780
F8000780
78000F80
78000F80
7C001F00
3E003F00
3F007E00
1FF3FC00
0FFFF800
03FFF000
00FFC000
000C0000
ENDCHAR
STARTCHAR 1ED2
ENCODING 7890
SWIDTH 810 0
DWIDTH 27 0
BBX 25 34 1 -1
BITMAP
3C000000
1C000000
0E000000
063E0000
073F0000
00778000
00F38000
01E1C000
00000000
003F0000
01FFE000
07FFF000
0FFFF800
1FC1FC00
3F003E00
3E001F00
7C000F00
78000F80
F8000780
F8000780
F0000780
F0000780
F0000780
F8000780
78000F80
78000F80
7C001F00
3E003F00
3F007E00
1FF3FC00
0FFFF800
03FFF000
00FFC000
000C0000
ENDCHAR
STARTCHAR 1ED3
ENCODING 7891
SWIDTH 810 0
DWIDTH 27 0
BBX 25 34 1 -1
BITMAP
3C000000
1C000000
0E000000
063E0000
073F0000
00778000
00F38000
01E1C000
00000000
003F0000
01FFE000
07FFF000
0FFFF800
1FC1FC00
3F003E00
3E001F00
7C000F00
78000F80
F8000780
F8000780
F0000780
F0000780
F0000780
F8000780
78000F80
78000F80
7C001F00
3E003F00
3F007E00
1FF3FC00
0FFFF800
03FFF000
00FFC000
000C0000
ENDCHAR
STARTCHAR 1ED4
ENCODING 7892
SWIDTH 810 0
DWIDTH 27 0
BBX 25 35 1 -1
BITMAP
00003000
00003000
00007000
00006000
003E6000
003F7000
00778000
00F38000
01E1C000
00000000
003F0000
01FFE000
07FFF000
0FFFF800
1FC1FC00
3F003E00
3E001F00
7C000F00
78000F80
F8000780
F8000780
F0000780
F0000780
F0000780
F8000780
78000F80
78000F80
7C001F00
3E003F00
3F007E00
1FF3FC00
0FFFF800
03FFF000
00FFC000
000C0000
ENDCHAR
STARTCHAR 1ED5
ENCODING 7893
SWIDTH 810 0
DWIDTH 27 0
BBX 25 35 1 -1
BITMAP
00003000
00003000
00007000
00006000
003E6000
003F7000
00778000
00F38000
01E1C000
00000000
003F0000
01FFE000
07FFF000
0FFFF800
1FC1FC00
3F003E00
3E001F00
7C000F00
78000F80
F8000780
F8000780
F0000780
F0000780
F0000780
F8000780
78000F80
78000F80
7C001F00
3E003F00
3F007E00
1FF3FC00
0FFFF800
03FFF000
00FFC000
000C0000
ENDCHAR
STARTCHAR 1ED6
ENCODING 7894
SWIDTH 810 0
DWIDTH 27 0
BBX 25 35 1 -1
BITMAP
00070000
000FF000
000FF000
00002000
003E0000
003F0000
00778000
00F38000
01E1C000
00000000
003F0000
01FFE000
07FFF000
0FFFF800
1FC1FC00
3F003E00
3E001F00
7C000F00
78000F80
F8000780
F8000780
F0000780
F0000780
F0000780
F8000780
78000F80
78000F80
7C001F00
3E003F00
3F007E00
1FF3FC00
0FFFF800
03FFF000
00FFC000
000C0000
ENDCHAR
STARTCHAR 1ED7
ENCODING 7895
SWIDTH 810 0
DWIDTH 27 0
BBX 25 35 1 -1
BITMAP
00070000
000FF000
000FF000
00002000
003E0000
003F0000
00778000
00F38000
01E1C000
00000000
003F0000
01FFE000
07FFF000
0FFFF800
1FC1FC00
3F003E00
3E001F00
7C000F00
78000F80
F8000780
F8000780
F0000780
F0000780
F0000780
F8000780
78000F80
78000F80
7C001F00
3E003F00
3F007E00
1FF3FC00
0FFFF800
03FFF000
00FFC000
000C0000
ENDCHAR
STARTCHAR 1ED8
ENCODING 7896
SWIDTH 810 0
DWIDTH 27 0
BBX 25 39 1 -9
BITMAP
003E0000
003F0000
00778000
00F38000
01E1C000
00000000
003F0000
01FFE000
07FFF000
0FFFF800
1FC1FC00
3F003E00
3E001F00
7C000F00
78000F80
F8000780
F8000780
F0000780
F0000780
F0000780
F8000780
78000F80
78000F80
7C001F00
3E003F00
3F007E00
1FF3FC00
0FFFF800
03FFF000
00FFC000
000C0000
00000000
00000000
00000000
001E0000
003E0000
003E0000
003E0000
001C0000
ENDCHAR
STARTCHAR 1ED9
ENCODING 7897
SWIDTH 810 0
DWIDTH 27 0
BBX 25 39 1 -9
BITMAP
003E0000
003F0000
00778000
00F38000
01E1C000
00000000
003F0000
01FFE000
07FFF000
0FFFF800
1FC1FC00
3F003E00
3E001F00
7C000F00
78000F80
F8000780
F8000780
F0000780
F0000780
F0000780
F8000780
78000F80
78000F80
7C001F00
3E003F00
3F007E00
1FF3FC00
0FFFF800
03FFF000
00FFC000
000C0000
00000000
00000000
00000000
001E0000
003E0000
003E0000
003E0000
001C0000
ENDCHAR
STARTCHAR 1EDA
ENCODING 7898
SWIDTH 810 0
DWIDTH 27 0
BBX 25 31 1 -1
BITMAP
00070000
00070000
000E0000
000C0000
001C0700
00000E00
003F0E00
01FFFC00
07FFF000
0FFFF800
1FC1FC00
3F003E00
3E001F00
7C000F00
78000F80
F8000780
F8000780
F0000780
F0000780
F0000780
F8000780
78000F80
78000F80
7C001F00
3E003F00
3F007E00
1FF3FC00
0FFFF800
03FFF000
00FFC000
000C0000
ENDCHAR
STARTCHAR 1EDB
ENCODING 7899
SWIDTH 810 0
DWIDTH 27 0
BBX 25 31 1 -1
BITMAP
00070000
00070000
000E0000
000C0000
001C0700
00000E00
003F0E00
01FFFC00
07FFF000
0FFFF800
1FC1FC00
3F003E00
3E001F00
7C000F00
78000F80
F8000780
F8000780
F0000780
F0000780
F0000780
F8000780
78000F80
78000F80
7C001F00
3E003F00
3F007E00
1FF3FC00
0FFFF800
03FFF000
00FFC000
000C0000
ENDCHAR
STARTCHAR 1EDC
ENCODING 7900
SWIDTH 810 0
DWIDTH 27 0
BBX 25 31 1 -1
BITMAP
00700000
00380000
00180000
001C0000
000C0700
00000E00
003F0E00
01FFFC00
07FFF000
0FFFF800
1FC1FC00
3F003E00
3E001F00
7C000F00
78000F80
F8000780
F8000780
F0000780
F0000780
F0000780
F8000780
78000F80
78000F80
7C001F00
3E003F00
3F007E00
1FF3FC00
0FFFF800
03FFF000
00FFC000
000C0000
ENDCHAR
STARTCHAR 1EDD
ENCODING 7901
SWIDTH 810 0
DWIDTH 27 0
BBX 25 31 1 -1
BITMAP
00700000
00380000
00180000
001C0000
000C0700
00000E00
003F0E00
01FFFC00
07FFF000
0FFFF800
1FC1FC00
3F003E00
3E001F00
7C000F00
78000F80
F8000780
F8000780
F0000780
F0000780
F0000780
F8000780
78000F80
78000F80
7C001F00
3E003F00
3F007E00
1FF3FC00
0FFFF800
03FFF000
00FFC000
000C0000
ENDCHAR
STARTCHAR 1EDE
ENCODING 7902
SWIDTH 810 0
DWIDTH 27 0
BBX 25 33 1 -1
BITMAP
001C0000
000C0000
000C0000
001C0000
001C0000
001C0000
001C0700
00000E00
003F0E00
01FFFC00
07FFF000
0FFFF800
1FC1FC00
3F003E00
3E001F00
7C000F00
78000F80
F8000780
F8000780
F0000780
F0000780
F0000780
F8000780
78000F80
78000F80
7C001F00
3E003F00
3F007E00
1FF3FC00
0FFFF800
03FFF000
00FFC000
000C0000
ENDCHAR
STARTCHAR 1EDF
ENCODING 7903
SWIDTH 810 0
DWIDTH 27 0
BBX 25 33 1 -1
BITMAP
001C0000
000C0000
000C0000
001C0000
001C0000
001C0000
001C0700
00000E00
003F0E00
01FFFC00
07FFF000
0FFFF800
1FC1FC00
3F003E00
3E001F00
7C000F00
78000F80
F8000780
F8000780
F0000780
F0000780
F0000780
F8000780
78000F80
78000F80
7C001F00
3E003F00
3F007E00
1FF3FC00
0FFFF800
03FFF000
00FFC000
000C0000
ENDCHAR
STARTCHAR 1EE0
ENCODING 7904
SWIDTH 810 0
DWIDTH 27 0
BBX 25 31 1 -1
BITMAP
00600000
00FF0000
00FF0000
00060000
00000700
00000E00
003F0E00
01FFFC00
07FFF000
0FFFF800
1FC1FC00
3F003E00
3E001F00
7C000F00
78000F80
F8000780
F8000780
F0000780
F0000780
F0000780
F8000780
78000F80
78000F80
7C001F00
3E003F00
3F007E00
1FF3FC00
0FFFF800
03FFF000
00FFC000
000C0000
ENDCHAR
STARTCHAR 1EE1
ENCODING 7905
SWIDTH 810 0
DWIDTH 27 0
BBX 25 31 1 -1
BITMAP
00600000
00FF0000
00FF0000
00060000
00000700
00000E00
003F0E00
01FFFC00
07FFF000
0FFFF800
1FC1FC00
3F003E00
3E001F00
7C000F00
78000F80
F8000780
F8000780
F0000780
F0000780
F0000780
F8000780
78000F80
78000F80
7C001F00
3E003F00
3F007E00
1FF3FC00
0FFFF800
03FFF000
00FFC000
000C0000
ENDCHAR
STARTCHAR 1EE2
ENCODING 7906
SWIDTH 810 0
DWIDTH 27 0
BBX 25 35 1 -9
BITMAP
00000700
00000E00
003F0E00
01FFFC00
07FFF000
0FFFF800
1FC1FC00
3F003E00
3E001F00
7C000F00
78000F80
F8000780
F8000780
F0000780
F0000780
F0000780
F8000780
78000F80
78000F80
7C001F00
3E003F00
3F007E00
1FF3FC00
0FFFF800
03FFF000
00FFC000
000C0000
00000000
00000000
00000000
001E0000
003E0000
003E0000
003E0000
001C0000
ENDCHAR
STARTCHAR 1EE3
ENCODING 7907
SWIDTH 810 0
DWIDTH 27 0
BBX 25 35 1 -9
BITMAP
00000700
00000E00
003F0E00
01FFFC00
07FFF000
0FFFF800
1FC1FC00
3F003E00
3E001F00
7C000F00
78000F80
F8000780
F8000780
F0000780
F0000780
F0000780
F8000780
78000F80
78000F80
7C001F00
3E003F00
3F007E00
1FF3FC00
0FFFF800
03FFF000
00FFC000
000C0000
00000000
00000000
00000000
001E0000
003E0000
003E0000
003E0000
001C0000
ENDCHAR
STARTCHAR 1EE4
ENCODING 7908
SWIDTH 510 0
DWIDTH 17 0
BBX 15 32 1 -9
BITMAP
F81E
F81E
F81E
F81E
F81E
F81E
F81E
F81E
F81E
F81E
F81E
F81E
F81E
F81E
F81E
F81E
781E
781E
7C3E
7EFC
3FFC
1FF8
0FF0
0180
0000
0000
0000
03C0
07C0
07E0
07C0
03C0
ENDCHAR
STARTCHAR 1EE5
ENCODING 7909
SWIDTH 510 0
DWIDTH 17 0
BBX 15 32 1 -9
BITMAP
F81E
F81E
F81E
F81E
F81E
F81E
F81E
F81E
F81E
F81E
F81E
F81E
F81E
F81E
F81E
F81E
781E
781E
7C3E
7EFC
3FFC
1FF8
0FF0
0180
0000
0000
0000
03C0
07C0
07E0
07C0
03C0
ENDCHAR
STARTCHAR 1EE6
ENCODING 7910
SWIDTH 510 0
DWIDTH 17 0
BBX 15 33 1 -1
BITMAP
0180
0180
0180
0380
0380
0380
0380
0000
0000
F81E
F81E
F81E
F81E
F81E
F81E
F81E
F81E
F81E
F81E
F81E
F81E
F81E
F81E
F81E
F81E
781E
781E
7C3E
7EFC
3FFC
1FF8
0FF0
0180
ENDCHAR
STARTCHAR 1EE7
ENCODING 7911
SWIDTH 510 0
DWIDTH 17 0
BBX 15 33 1 -1
BITMAP
0180
0180
0180
0380
0380
0380
0380
0000
0000
F81E
F81E
F81E
F81E
F81E
F81E
F81E
F81E
F81E
F81E
F81E
F81E
F81E
F81E
F81E
F81E
781E
781E
7C3E
7EFC
3FFC
1FF8
0FF0
0180
ENDCHAR
STARTCHAR 1EE8
ENCODING 7912
SWIDTH 510 0
DWIDTH 17 0
BBX 18 31 1 -1
BITMAP
00F000
00E000
01C000
018000
0381C0
0001C0
000180
F81F00
F81E00
F81E00
F81E00
F81E00
F81E00
F81E00
F81E00
F81E00
F81E00
F81E00
F81E00
F81E00
F81E00
F81E00
F81E00
781E00
781E00
7C3E00
7EFC00
3FFC00
1FF800
0FF000
018000
ENDCHAR
STARTCHAR 1EE9
ENCODING 7913
SWIDTH 510 0
DWIDTH 17 0
BBX 18 31 1 -1
BITMAP
00F000
00E000
01C000
018000
0381C0
0001C0
000180
F81F00
F81E00
F81E00
F81E00
F81E00
F81E00
F81E00
F81E00
F81E00
F81E00
F81E00
F81E00
F81E00
F81E00
F81E00
F81E00
781E00
781E00
7C3E00
7EFC00
3FFC00
1FF800
0FF000
018000
ENDCHAR
STARTCHAR 1EEA
ENCODING 7914
SWIDTH 510 0
DWIDTH 17 0
BBX 18 31 1 -1
BITMAP
0E0000
070000
030000
038000
0181C0
0001C0
000180
F81F00
F81E00
F81E00
F81E00
F81E00
F81E00
F81E00
F81E00
F81E00
F81E00
F81E00
F81E00
F81E00
F81E00
F81E00
F81E00
781E00
781E00
7C3E00
7EFC00
3FFC00
1FF800
0FF000
018000
ENDCHAR
STARTCHAR 1EEB
ENCODING 7915
SWIDTH 510 0
DWIDTH 17 0
BBX 18 31 1 -1
BITMAP
0E0000
070000
030000
038000
0181C0
0001C0
000180
F81F00
F81E00
F81E00
F81E00
F81E00
F81E00
F81E00
F81E00
F81E00
F81E00
F81E00
F81E00
F81E00
F81E00
F81E00
F81E00
781E00
781E00
7C3E00
7EFC00
3FFC00
1FF800
0FF000
018000
ENDCHAR
STARTCHAR 1EEC
ENCODING 7916
SWIDTH 510 0
DWIDTH 17 0
BBX 18 33 1 -1
BITMAP
018000
018000
018000
038000
038000
038000
0381C0
0001C0
000180
F81F00
F81E00
F81E00
F81E00
F81E00
F81E00
F81E00
F81E00
F81E00
F81E00
F81E00
F81E00
F81E00
F81E00
F81E00
F81E00
781E00
781E00
7C3E00
7EFC00
3FFC00
1FF800
0FF000
018000
ENDCHAR
STARTCHAR 1EED
ENCODING 7917
SWIDTH 510 0
DWIDTH 17 0
BBX 18 33 1 -1
BITMAP
018000
018000
018000
038000
038000
038000
0381C0
0001C0
000180
F81F00
F81E00
F81E00
F81E00
F81E00
F81E00
F81E00
F81E00
F81E00
F81E00
F81E00
F81E00
F81E00
F81E00
F81E00
F81E00
781E00
781E00
7C3E00
7EFC00
3FFC00
1FF800
0FF000
018000
ENDCHAR
STARTCHAR 1EEE
ENCODING 7918
SWIDTH 510 0
DWIDTH 17 0
BBX 18 31 1 -1
BITMAP
0E0000
1FE000
1FE000
004000
0001C0
0001C0
000180
F81F00
F81E00
F81E00
F81E00
F81E00
F81E00
F81E00
F81E00
F81E00
F81E00
F81E00
F81E00
F81E00
F81E00
F81E00
F81E00
781E00
781E00
7C3E00
7EFC00
3FFC00
1FF800
0FF000
018000
ENDCHAR
STARTCHAR 1EEF
ENCODING 7919
SWIDTH 510 0
DWIDTH 17 0
BBX 18 31 1 -1
BITMAP
0E0000
1FE000
1FE000
004000
0001C0
0001C0
000180
F81F00
F81E00
F81E00
F81E00
F81E00
F81E00
F81E00
F81E00
F81E00
F81E00
F81E00
F81E00
F81E00
F81E00
F81E00
F81E00
781E00
781E00
7C3E00
7EFC00
3FFC00
1FF800
0FF000
018000
ENDCHAR
STARTCHAR 1EF0
ENCODING 7920
SWIDTH 510 0
DWIDTH 17 0
BBX 18 35 1 -9
BITMAP
0001C0
0001C0
000180
F81F00
F81E00
F81E00
F81E00
F81E00
F81E00
F81E00
F81E00
F81E00
F81E00
F81E00
F81E00
F81E00
F81E00
F81E00
F81E00
781E00
781E00
7C3E00
7EFC00
3FFC00
1FF800
0FF000
018000
000000
000000
000000
03C000
07C000
07E000
07C000
03C000
ENDCHAR
STARTCHAR 1EF1
ENCODING 7921
SWIDTH 510 0
DWIDTH 17 0
BBX 18 35 1 -9
BITMAP
0001C0
0001C0
000180
F81F00
F81E00
F81E00
F81E00
F81E00
F81E00
F81E00
F81E00
F81E00
F81E00
F81E00
F81E00
F81E00
F81E00
F81E00
F81E00
781E00
781E00
7C3E00
7EFC00
3FFC00
1FF800
0FF000
018000
000000
000000
000000
03C000
07C000
07E000
07C000
03C000
ENDCHAR
STARTCHAR 1EF2
ENCODING 7922
SWIDTH 510 0
DWIDTH 17 0
BBX 15 30 1 0
BITMAP
0E00
0700
0700
0380
0180
0000
0000
F81E
F81E
F81E
F81E
F81E
F81E
F81E
F81E
F81E
F81E
F81E
F81E
783E
7C7C
3FFC
3FF8
0FF0
03C0
03C0
03C0
03C0
03C0
03C0
ENDCHAR
STARTCHAR 1EF3
ENCODING 7923
SWIDTH 510 0
DWIDTH 17 0
BBX 15 30 1 0
BITMAP
0E00
0700
0700
0380
0180
0000
0000
F81E
F81E
F81E
F81E
F81E
F81E
F81E
F81E
F81E
F81E
F81E
F81E
783E
7C7C
3FFC
3FF8
0FF0
03C0
03C0
03C0
03C0
03C0
03C0
ENDCHAR
STARTCHAR 1EF4
ENCODING 7924
SWIDTH 510 0
DWIDTH 17 0
BBX 15 32 1 -9
BITMAP
F81E
F81E
F81E
F81E
F81E
F81E
F81E
F81E
F81E
F81E
F81E
F81E
783E
7C7C
3FFC
3FF8
0FF0
03C0
03C0
03C0
03C0
03C0
03C0
0000
0000
0000
0000
03C0
07C0
07C0
07C0
0380
ENDCHAR
STARTCHAR 1EF5
ENCODING 7925
SWIDTH 510 0
DWIDTH 17 0
BBX 15 32 1 -9
BITMAP
F81E
F81E
F81E
F81E
F81E
F81E
F81E
F81E
F81E
F81E
F81E
F81E
783E
7C7C
3FFC
3FF8
0FF0
03C0
03C0
03C0
03C0
03C0
03C0
0000
0000
0000
0000
03C0
07C0
07C0
07C0
0380
ENDCHAR
STARTCHAR 1EF6
ENCODING 7926
SWIDTH 510 0
DWIDTH 17 0
BBX 15 32 1 0
BITMAP
0380
0180
0180
0380
0300
0300
0380
0000
0000
F81E
F81E
F81E
F81E
F81E
F81E
F81E
F81E
F81E
F81E
F81E
F81E
783E
7C7C
3FFC
3FF8
0FF0
03C0
03C0
03C0
03C0
03C0
03C0
ENDCHAR
STARTCHAR 1EF7
ENCODING 7927
SWIDTH 510 0
DWIDTH 17 0
BBX 15 32 1 0
BITMAP
0380
0180
0180
0380
0300
0300
0380
0000
0000
F81E
F81E
F81E
F81E
F81E
F81E
F81E
F81E
F81E
F81E
F81E
F81E
783E
7C7C
3FFC
3FF8
0FF0
03C0
03C0
03C0
03C0
03C0
03C0
ENDCHAR
STARTCHAR 1EF8
ENCODING 7928
SWIDTH 510 0
DWIDTH 17 0
BBX 15 30 1 0
BITMAP
0C00
1FE0
1FE0
00C0
0000
0000
0000
F81E
F81E
F81E
F81E
F81E
F81E
F81E
F81E
F81E
F81E
F81E
F81E
783E
7C7C
3FFC
3FF8
0FF0
03C0
03C0
03C0
03C0
03C0
03C0
ENDCHAR
STARTCHAR 1EF9
ENCODING 7929
SWIDTH 510 0
DWIDTH 17 0
BBX 15 30 1 0
BITMAP
0C00
1FE0
1FE0
00C0
0000
0000
0000
F81E
F81E
F81E
F81E
F81E
F81E
F81E
F81E
F81E
F81E
F81E
F81E
783E
7C7C
3FFC
3FF8
0FF0
03C0
03C0
03C0
03C0
03C0
03C0
ENDCHAR
STARTCHAR 2013
ENCODING 8211
SWIDTH 570 0
DWIDTH 19 0
BBX 15 3 2 7
BITMAP
FFFE
FFFE
FFFE
ENDCHAR
STARTCHAR 2014
ENCODING 8212
SWIDTH 810 0
DWIDTH 27 0
BBX 24 3 2 7
BITMAP
FFFFFF
FFFFFF
FFFFFF
ENDCHAR
STARTCHAR 2018
ENCODING 8216
SWIDTH 240 0
DWIDTH 8 0
BBX 4 6 2 17
BITMAP
30
30
70
70
F0
E0
ENDCHAR
STARTCHAR 2019
ENCODING 8217
SWIDTH 240 0
DWIDTH 8 0
BBX 4 6 2 17
BITMAP
70
70
70
E0
E0
C0
ENDCHAR
STARTCHAR 201A
ENCODING 8218
SWIDTH 240 0
DWIDTH 8 0
BBX 5 7 2 -4
BITMAP
78
70
70
70
E0
E0
C0
ENDCHAR
STARTCHAR 201C
ENCODING 8220
SWIDTH 420 0
DWIDTH 14 0
BBX 10 6 2 17
BITMAP
38C0
30C0
71C0
71C0
73C0
F380
ENDCHAR
STARTCHAR 201D
ENCODING 8221
SWIDTH 420 0
DWIDTH 14 0
BBX 10 6 2 17
BITMAP
71C0
71C0
7380
E380
E380
C300
ENDCHAR
STARTCHAR 201E
ENCODING 8222
SWIDTH 420 0
DWIDTH 14 0
BBX 11 7 2 -4
BITMAP
78E0
71E0
71C0
71C0
E1C0
E180
C380
ENDCHAR
STARTCHAR 2020
ENCODING 8224
SWIDTH 420 0
DWIDTH 14 0
BBX 10 16 2 8
BITMAP
0E00
0E00
0E00
FFC0
FFC0
FFC0
0E00
0E00
0E00
0E00
0E00
0E00
0E00
0E00
0E00
0E00
ENDCHAR
STARTCHAR 2021
ENCODING 8225
SWIDTH 420 0
DWIDTH 14 0
BBX 10 16 2 8
BITMAP
0E00
0E00
0E00
FFC0
FFC0
FFC0
0E00
0E00
0E00
0E00
FFC0
FFC0
FFC0
0E00
0E00
0E00
ENDCHAR
STARTCHAR 2022
ENCODING 8226
SWIDTH 330 0
DWIDTH 11 0
BBX 7 7 2 6
BITMAP
7C
FE
FE
FE
FE
FE
7C
ENDCHAR
STARTCHAR 2026
ENCODING 8230
SWIDTH 690 0
DWIDTH 23 0
BBX 20 5 2 0
BITMAP
7060E0
F8F1F0
F9F9F0
F9F9F0
F8F1E0
ENDCHAR
STARTCHAR 2030
ENCODING 8240
SWIDTH 1320 0
DWIDTH 44 0
BBX 41 24 2 0
BITMAP
0F0000000000
3FC01E000000
7FE01C000000
F9E038000000
F0F070000000
E0F0F0000000
E0F0E0000000
F0F1C0000000
FBE3C0000000
7FE380000000
3F8700000000
060F00000000
000E00000000
001C3F00FC00
00387F81FE00
0078FFC3FF00
0071E1C78700
00E1E1E78780
01E1C0E70380
01C1C1E70780
0381E1E78780
0780FFC3FF00
0700FF83FE00
0E003F00FC00
ENDCHAR
STARTCHAR 2039
ENCODING 8249
SWIDTH 390 0
DWIDTH 13 0
BBX 9 15 2 3
BITMAP
0780
0700
0F00
1E00
3C00
3800
7800
F000
F000
7800
3C00
1E00
1E00
0F00
0780
ENDCHAR
STARTCHAR 203A
ENCODING 8250
SWIDTH 390 0
DWIDTH 13 0
BBX 9 15 2 3
BITMAP
F000
7800
7800
3C00
1E00
0F00
0F00
0780
0780
0F00
1E00
1C00
3C00
7800
F000
ENDCHAR
STARTCHAR 2044
ENCODING 8260
SWIDTH 660 0
DWIDTH 22 0
BBX 19 23 2 0
BITMAP
0001E0
0001C0
000380
000780
000700
000E00
001E00
001C00
003800
007000
00F000
00E000
01C000
03C000
038000
070000
0F0000
0E0000
1C0000
380000
780000
700000
E00000
ENDCHAR
STARTCHAR 20AC
ENCODING 8364
SWIDTH 630 0
DWIDTH 21 0
BBX 18 24 2 0
BITMAP
0007C0
007FC0
00FFC0
03FFC0
03F8C0
07C000
0F8000
0F0000
1F0000
FFFE00
FFFE00
FFFE00
1E0000
FFFE00
FFFE00
FFFE00
1F0000
0F8000
0FC000
07E000
03FFC0
01FFC0
00FFC0
003FC0
ENDCHAR
STARTCHAR 2122
ENCODING 8482
SWIDTH 810 0
DWIDTH 27 0
BBX 24 13 2 11
BITMAP
FF8107
FFE1C7
FFF1E7
1C7DFF
1C7FFF
1C7FDF
1C77CF
1C71C7
1C71C7
1C71C7
1C71C7
1C71C7
1C71C7
ENDCHAR
STARTCHAR 2190
ENCODING 8592
SWIDTH 810 0
DWIDTH 27 0
BBX 24 16 2 4
BITMAP
018000
03C000
07C000
0F8000
1F0000
3E0000
7FFFFF
FFFFFF
FFFFFF
7FFFFF
3E0000
1F0000
0F8000
07C000
03C000
018000
ENDCHAR
STARTCHAR 2191
ENCODING 8593
SWIDTH 600 0
DWIDTH 20 0
BBX 17 24 2 0
BITMAP
008000
01C000
03E000
07F000
0FF800
1FFC00
3DFE00
79DF00
F1CF80
61C700
01C200
01C000
01C000
01C000
01C000
01C000
01C000
01C000
01C000
01C000
01C000
01C000
01C000
01C000
ENDCHAR
STARTCHAR 2192
ENCODING 8594
SWIDTH 810 0
DWIDTH 27 0
BBX 23 16 2 4
BITMAP
000300
000780
0003C0
0001E0
0000F0
000078
FFFFFC
FFFFFE
FFFFFE
FFFFFC
000078
0000F0
0001E0
0003C0
000780
000300
ENDCHAR
STARTCHAR 2193
ENCODING 8595
SWIDTH 600 0
DWIDTH 20 0
BBX 16 23 2 -1
BITMAP
03C0
03C0
03C0
01C0
01C0
01C0
01C0
01C0
01C0
01C0
01C0
01C0
01C0
21C2
71C7
F9CF
7DDE
3FFC
1FF8
0FF0
07E0
03C0
0180
ENDCHAR
STARTCHAR 2194
ENCODING 8596
SWIDTH 900 0
DWIDTH 30 0
BBX 27 16 2 4
BITMAP
01803000
03C07800
07C07C00
0F803E00
1F001F00
3E000F80
7FFFFFC0
FFFFFFE0
FFFFFFE0
7FFFFFC0
3E000F80
1F001F00
0F803E00
07C07C00
03C07800
01803000
ENDCHAR
STARTCHAR 2195
ENCODING 8597
SWIDTH 660 0
DWIDTH 22 0
BBX 19 24 2 -1
BITMAP
004000
01E000
03F000
07FC00
1FFE00
3FFF00
7DE7C0
F9E3E0
61E1C0
41E080
01E000
01E000
01E000
01E000
01E000
61E080
F1E1C0
F9E7C0
7DEF80
1FFF00
0FFE00
07F800
03F000
00E000
ENDCHAR
STARTCHAR 2196
ENCODING 8598
SWIDTH 630 0
DWIDTH 21 0
BBX 18 19 2 2
BITMAP
FFF000
FFF000
FFF000
F80000
FC0000
FE0000
EF0000
E78000
E7C000
E3E000
E1F000
E0F800
007C00
003E00
001F00
000F80
0007C0
000380
000100
ENDCHAR
STARTCHAR 2197
ENCODING 8599
SWIDTH 630 0
DWIDTH 21 0
BBX 18 19 2 2
BITMAP
03FFC0
03FFC0
03FFC0
0007C0
000FC0
001FC0
003DC0
0079C0
00F1C0
01E1C0
03C1C0
07C1C0
0F8000
1F0000
3E0000
7C0000
F80000
700000
200000
ENDCHAR
STARTCHAR 2198
ENCODING 8600
SWIDTH 630 0
DWIDTH 21 0
BBX 18 18 2 3
BITMAP
600000
F00000
F80000
7C0000
3E0000
1F0000
0F81C0
07C1C0
03E1C0
01F1C0
00F9C0
007DC0
003FC0
001FC0
000FC0
03FFC0
03FFC0
03FFC0
ENDCHAR
STARTCHAR 2199
ENCODING 8601
SWIDTH 630 0
DWIDTH 21 0
BBX 18 18 2 3
BITMAP
000180
0003C0
0007C0
000F80
001F00
003E00
E07C00
E0F800
E1F000
E3E000
E7C000
EF8000
FF0000
FC0000
F80000
FFF000
FFF000
FFF000
ENDCHAR
STARTCHAR 2202
ENCODING 8706
SWIDTH 600 0
DWIDTH 20 0
BBX 16 26 2 -1
BITMAP
0400
0F00
0FC0
1FE0
07F0
01F8
00FC
007C
003E
001E
0FDF
1FEF
3FFF
7FFF
FC3F
F81F
F00F
F00F
F01F
F01E
F83E
7FFC
7FFC
3FF8
1FE0
0100
ENDCHAR
STARTCHAR 2205
ENCODING 8709
SWIDTH 720 0
DWIDTH 24 0
BBX 21 20 2 2
BITMAP
01FC30
07FF70
1F07E0
3C01C0
3003E0
700770
600E30
E01C30
C03830
C07038
C0E038
C1C030
E38030
670070
7E0070
3C00E0
3C01C0
7F0780
E7FF00
C1FC00
ENDCHAR
STARTCHAR 220F
ENCODING 8719
SWIDTH 630 0
DWIDTH 21 0
BBX 18 28 2 -4
BITMAP
FFFFC0
FFFFC0
FFFFC0
3C0E00
3C0E00
3C0E00
3C0E00
3C0E00
3C0E00
3C0E00
3C0E00
3C0E00
3C0E00
3C0E00
3C0E00
3C0E00
3C0E00
3C0E00
3C0E00
3C0E00
3C0E00
3C0E00
3C0E00
3C0E00
3C0E00
3C0E00
3C0E00
3C0E00
ENDCHAR
STARTCHAR 2211
ENCODING 8721
SWIDTH 480 0
DWIDTH 16 0
BBX 13 28 2 -4
BITMAP
FFF8
FFF8
FFF8
F000
7800
7800
3C00
3C00
1E00
1F00
0F00
0780
0780
03C0
0780
0780
0F00
0F00
1E00
1E00
3C00
7800
7800
F000
FFF8
FFF8
FFF8
FFF8
ENDCHAR
STARTCHAR 2212
ENCODING 8722
SWIDTH 570 0
DWIDTH 19 0
BBX 15 4 2 9
BITMAP
FFFE
FFFE
FFFE
FFFE
ENDCHAR
STARTCHAR 221A
ENCODING 8730
SWIDTH 690 0
DWIDTH 23 0
BBX 20 28 2 -4
BITMAP
000FF0
000FF0
000FF0
000FF0
001E00
001E00
001E00
003C00
003C00
003C00
003800
007800
007800
007000
F07000
F0F000
78F000
78E000
79E000
39E000
3DC000
3DC000
1FC000
1FC000
1F8000
0F8000
0F8000
0F0000
ENDCHAR
STARTCHAR 221E
ENCODING 8734
SWIDTH 810 0
DWIDTH 27 0
BBX 24 12 2 6
BITMAP
040000
3F81FC
7FC7FE
F1EF8E
E07E07
C03C07
C03C07
E07E07
E0FF0E
7FE7FE
3FC3FC
0F00F0
ENDCHAR
STARTCHAR 222B
ENCODING 8747
SWIDTH 510 0
DWIDTH 17 0
BBX 14 28 2 -4
BITMAP
003C
00FC
01FC
01E0
01C0
03C0
03C0
03C0
0380
0380
0380
0780
0780
0780
0700
0700
0700
0F00
0F00
0F00
0E00
0E00
1E00
1E00
3C00
FC00
F800
E000
ENDCHAR
STARTCHAR 2248
ENCODING 8776
SWIDTH 540 0
DWIDTH 18 0
BBX 15 12 2 5
BITMAP
1000
FF86
FFFE
FFFE
00FC
0000
0000
0000
FF86
FFFE
FFFE
00FC
ENDCHAR
STARTCHAR 2260
ENCODING 8800
SWIDTH 570 0
DWIDTH 19 0
BBX 15 17 2 2
BITMAP
00F0
00E0
01E0
FFFE
FFFE
FFFE
0380
0380
0780
0700
FFFE
FFFE
FFFE
1E00
1C00
1C00
3C00
ENDCHAR
STARTCHAR 2264
ENCODING 8804
SWIDTH 570 0
DWIDTH 19 0
BBX 15 15 2 3
BITMAP
0002
003E
07FE
7FF8
FF80
F800
FFC0
7FFC
03FE
003E
0000
0000
FFFE
FFFE
FFFE
ENDCHAR
STARTCHAR 2265
ENCODING 8805
SWIDTH 570 0
DWIDTH 19 0
BBX 15 15 2 3
BITMAP
8000
FC00
FFC0
3FFE
03FE
003E
03FE
7FFC
FF80
F800
0000
0000
FFFE
FFFE
FFFE
ENDCHAR
STARTCHAR 25CA
ENCODING 9674
SWIDTH 510 0
DWIDTH 17 0
BBX 13 20 2 2
BITMAP
0780
0F80
0FC0
1DC0
1DE0
38E0
38F0
7070
7078
F038
F038
7078
7870
38F0
3CE0
1DE0
1FC0
0FC0
0F80
0780
ENDCHAR
ENDFONT
